<?xml version="1.0" encoding="UTF-8"?>
<svg xmlns="http://www.w3.org/2000/svg" width="800" height="320" viewBox="0 0 800 320"><svg x="0" y="0" width="800" height="320" viewBox="0 0 100 100" preserveAspectRatio="none"><title id="svgraph-31-title">Line chart</title><desc id="svgraph-31-desc">Line chart with 1 series of 7 points. Range: 12 to 52.</desc><line x1="12" x2="98" y1="82.5833" y2="82.5833" stroke="#e5e7eb" stroke-width="1" vector-effect="non-scaling-stroke"/><line x1="12" x2="98" y1="65.5" y2="65.5" stroke="#e5e7eb" stroke-width="1" vector-effect="non-scaling-stroke"/><line x1="12" x2="98" y1="48.4167" y2="48.4167" stroke="#e5e7eb" stroke-width="1" vector-effect="non-scaling-stroke"/><line x1="12" x2="98" y1="31.3333" y2="31.3333" stroke="#e5e7eb" stroke-width="1" vector-effect="non-scaling-stroke"/><line x1="12" x2="98" y1="14.25" y2="14.25" stroke="#e5e7eb" stroke-width="1" vector-effect="non-scaling-stroke"/><line x1="12" x2="98" y1="-2.8333" y2="-2.8333" stroke="#e5e7eb" stroke-width="1" vector-effect="non-scaling-stroke"/><line x1="12" x2="12" y1="4" y2="86" stroke="#9ca3af" stroke-width="1" vector-effect="non-scaling-stroke"/><line x1="12" x2="98" y1="86" y2="86" stroke="#9ca3af" stroke-width="1" vector-effect="non-scaling-stroke"/><rect class="svgraph-annotation-zone" x="55" y="4" width="28.6667" height="82" fill="#f59e0b22"/><path class="series-0" d="M12,79.1667 C17.0167,70.1979 16.3,53.5417 26.3333,53.5417 C36.3667,53.5417 30.6333,68.9167 40.6667,68.9167 C50.7,68.9167 44.9667,29.625 55,29.625 C65.0333,29.625 59.3,43.2917 69.3333,43.2917 C79.3667,43.2917 73.6333,10.8333 83.6667,10.8333 C93.7,10.8333 92.9833,26.3792 98,34.75" fill="none" stroke="#3b82f6" stroke-width="2" stroke-linecap="round" stroke-linejoin="round" vector-effect="non-scaling-stroke"/></svg></svg>