<?xml version="1.0" encoding="UTF-8"?>
<svg xmlns="http://www.w3.org/2000/svg" width="800" height="320" viewBox="0 0 800 320"><svg x="0" y="0" width="800" height="320" viewBox="0 0 100 100" preserveAspectRatio="none"><title id="svgraph-29-title">Line chart</title><desc id="svgraph-29-desc">Line chart with 1 series of 7 points. Range: 12 to 52.</desc><line x1="12" x2="98" y1="82.5833" y2="82.5833" stroke="#e5e7eb" stroke-width="1" vector-effect="non-scaling-stroke"/><line x1="12" x2="98" y1="65.5" y2="65.5" stroke="#e5e7eb" stroke-width="1" vector-effect="non-scaling-stroke"/><line x1="12" x2="98" y1="48.4167" y2="48.4167" stroke="#e5e7eb" stroke-width="1" vector-effect="non-scaling-stroke"/><line x1="12" x2="98" y1="31.3333" y2="31.3333" stroke="#e5e7eb" stroke-width="1" vector-effect="non-scaling-stroke"/><line x1="12" x2="98" y1="14.25" y2="14.25" stroke="#e5e7eb" stroke-width="1" vector-effect="non-scaling-stroke"/><line x1="12" x2="98" y1="-2.8333" y2="-2.8333" stroke="#e5e7eb" stroke-width="1" vector-effect="non-scaling-stroke"/><line x1="12" x2="12" y1="4" y2="86" stroke="#9ca3af" stroke-width="1" vector-effect="non-scaling-stroke"/><line x1="12" x2="98" y1="86" y2="86" stroke="#9ca3af" stroke-width="1" vector-effect="non-scaling-stroke"/><line class="svgraph-annotation-ref" x1="12" y1="31.3333" x2="98" y2="31.3333" stroke="#ef4444" stroke-width="1" vector-effect="non-scaling-stroke" stroke-dasharray="4,3"/><path class="series-0" d="M12,79.1667 L26.3333,53.5417 L40.6667,68.9167 L55,29.625 L69.3333,43.2917 L83.6667,10.8333 L98,34.75" fill="none" stroke="#3b82f6" stroke-width="2" stroke-linecap="round" stroke-linejoin="round" vector-effect="non-scaling-stroke"/><g class="series-0"><ellipse cx="12" cy="79.1667" rx="0.48" ry="1.2" fill="#3b82f6"><title>Mon: 12</title></ellipse><ellipse id="svgraph-29-s0-pt-0" cx="12" cy="79.1667" rx="1.6" ry="4" fill="transparent" tabindex="0"><title>Mon: 12</title></ellipse></g><g class="series-0"><ellipse cx="26.3333" cy="53.5417" rx="0.48" ry="1.2" fill="#3b82f6"><title>Tue: 27</title></ellipse><ellipse id="svgraph-29-s0-pt-1" cx="26.3333" cy="53.5417" rx="1.6" ry="4" fill="transparent" tabindex="0"><title>Tue: 27</title></ellipse></g><g class="series-0"><ellipse cx="40.6667" cy="68.9167" rx="0.48" ry="1.2" fill="#3b82f6"><title>Wed: 18</title></ellipse><ellipse id="svgraph-29-s0-pt-2" cx="40.6667" cy="68.9167" rx="1.6" ry="4" fill="transparent" tabindex="0"><title>Wed: 18</title></ellipse></g><g class="series-0"><ellipse cx="55" cy="29.625" rx="0.48" ry="1.2" fill="#3b82f6"><title>Thu: 41</title></ellipse><ellipse id="svgraph-29-s0-pt-3" cx="55" cy="29.625" rx="1.6" ry="4" fill="transparent" tabindex="0"><title>Thu: 41</title></ellipse></g><g class="series-0"><ellipse cx="69.3333" cy="43.2917" rx="0.48" ry="1.2" fill="#3b82f6"><title>Fri: 33</title></ellipse><ellipse id="svgraph-29-s0-pt-4" cx="69.3333" cy="43.2917" rx="1.6" ry="4" fill="transparent" tabindex="0"><title>Fri: 33</title></ellipse></g><g class="series-0"><ellipse cx="83.6667" cy="10.8333" rx="0.48" ry="1.2" fill="#3b82f6"><title>Sat: 52</title></ellipse><ellipse id="svgraph-29-s0-pt-5" cx="83.6667" cy="10.8333" rx="1.6" ry="4" fill="transparent" tabindex="0"><title>Sat: 52</title></ellipse></g><g class="series-0"><ellipse cx="98" cy="34.75" rx="0.48" ry="1.2" fill="#3b82f6"><title>Sun: 38</title></ellipse><ellipse id="svgraph-29-s0-pt-6" cx="98" cy="34.75" rx="1.6" ry="4" fill="transparent" tabindex="0"><title>Sun: 38</title></ellipse></g></svg><text x="0" y="264.2666" font-family="inherit" font-size="12" fill="#374151" text-anchor="start" dominant-baseline="middle">10</text><text x="0" y="209.6" font-family="inherit" font-size="12" fill="#374151" text-anchor="start" dominant-baseline="middle">20</text><text x="0" y="154.9334" font-family="inherit" font-size="12" fill="#374151" text-anchor="start" dominant-baseline="middle">30</text><text x="0" y="100.2666" font-family="inherit" font-size="12" fill="#374151" text-anchor="start" dominant-baseline="middle">40</text><text x="0" y="45.6" font-family="inherit" font-size="12" fill="#374151" text-anchor="start" dominant-baseline="middle">50</text><text x="0" y="0" font-family="inherit" font-size="12" fill="#374151" text-anchor="start" dominant-baseline="middle">60</text><text x="96" y="320" font-family="inherit" font-size="12" fill="#374151" text-anchor="middle" dominant-baseline="text-after-edge">Mon</text><text x="210.6664" y="320" font-family="inherit" font-size="12" fill="#374151" text-anchor="middle" dominant-baseline="text-after-edge">Tue</text><text x="325.3336" y="320" font-family="inherit" font-size="12" fill="#374151" text-anchor="middle" dominant-baseline="text-after-edge">Wed</text><text x="440" y="320" font-family="inherit" font-size="12" fill="#374151" text-anchor="middle" dominant-baseline="text-after-edge">Thu</text><text x="554.6664" y="320" font-family="inherit" font-size="12" fill="#374151" text-anchor="middle" dominant-baseline="text-after-edge">Fri</text><text x="669.3336" y="320" font-family="inherit" font-size="12" fill="#374151" text-anchor="middle" dominant-baseline="text-after-edge">Sat</text><text x="784" y="320" font-family="inherit" font-size="12" fill="#374151" text-anchor="middle" dominant-baseline="text-after-edge">Sun</text><text x="784" y="100.2666" font-family="inherit" font-size="12" fill="#ef4444" text-anchor="end" dominant-baseline="text-after-edge">Goal</text></svg>