<?xml version="1.0" encoding="UTF-8"?>
<svg xmlns="http://www.w3.org/2000/svg" width="800" height="320" viewBox="0 0 800 320"><svg x="0" y="0" width="800" height="320" viewBox="0 0 100 100" preserveAspectRatio="none"><title id="svgraph-45-title">Line chart</title><desc id="svgraph-45-desc">Line chart with 1 series of 7 points. Range: 12 to 52.</desc><line x1="12" x2="98" y1="82.5833" y2="82.5833" stroke="#e5e7eb" stroke-width="1" vector-effect="non-scaling-stroke"/><line x1="12" x2="98" y1="65.5" y2="65.5" stroke="#e5e7eb" stroke-width="1" vector-effect="non-scaling-stroke"/><line x1="12" x2="98" y1="48.4167" y2="48.4167" stroke="#e5e7eb" stroke-width="1" vector-effect="non-scaling-stroke"/><line x1="12" x2="98" y1="31.3333" y2="31.3333" stroke="#e5e7eb" stroke-width="1" vector-effect="non-scaling-stroke"/><line x1="12" x2="98" y1="14.25" y2="14.25" stroke="#e5e7eb" stroke-width="1" vector-effect="non-scaling-stroke"/><line x1="12" x2="98" y1="-2.8333" y2="-2.8333" stroke="#e5e7eb" stroke-width="1" vector-effect="non-scaling-stroke"/><line x1="12" x2="12" y1="4" y2="86" stroke="#9ca3af" stroke-width="1" vector-effect="non-scaling-stroke"/><line x1="12" x2="98" y1="86" y2="86" stroke="#9ca3af" stroke-width="1" vector-effect="non-scaling-stroke"/><rect class="svgraph-annotation-zone" x="55" y="4" width="28.6667" height="82" fill="#f59e0b22"/><path class="series-0" d="M12,79.1667 C16.7778,70.625 21.5556,53.5417 26.3333,53.5417 C31.1111,53.5417 35.8889,68.9167 40.6667,68.9167 C45.4444,68.9167 50.2222,29.625 55,29.625 C59.7778,29.625 64.5556,43.2917 69.3333,43.2917 C74.1111,43.2917 78.8889,10.8333 83.6667,10.8333 C88.4444,10.8333 93.2222,26.7778 98,34.75" fill="none" stroke="#3b82f6" stroke-width="2" stroke-linecap="round" stroke-linejoin="round" vector-effect="non-scaling-stroke"/></svg></svg>