<?xml version="1.0" encoding="UTF-8"?>
<svg xmlns="http://www.w3.org/2000/svg" width="800" height="400" viewBox="0 0 800 400"><svg x="0" y="0" width="800" height="400" viewBox="0 0 100 100" preserveAspectRatio="none"><title id="svgraph-29-title">Horizontal bar chart</title><desc id="svgraph-29-desc">Horizontal bar chart with 1 series across 5 categories. Range: 96 to 1,240.</desc><path class="series-0" d="M22,3.8 L93,3.8 A1,2 0 0 1 94,5.8 L94,16.2 A1,2 0 0 1 93,18.2 L22,18.2 Z" fill="#6366f1" id="svgraph-29-s0-pt-0" tabindex="0"><title>Stripe: 1,240</title></path><path class="series-0" d="M22,21.8 L46.0839,21.8 A1,2 0 0 1 47.0839,23.8 L47.0839,34.2 A1,2 0 0 1 46.0839,36.2 L22,36.2 Z" fill="#6366f1" id="svgraph-29-s0-pt-1" tabindex="0"><title>PayPal: 432</title></path><path class="series-0" d="M22,39.8 L39.1161,39.8 A1,2 0 0 1 40.1161,41.8 L40.1161,52.2 A1,2 0 0 1 39.1161,54.2 L22,54.2 Z" fill="#6366f1" id="svgraph-29-s0-pt-2" tabindex="0"><title>Bank: 312</title></path><path class="series-0" d="M22,57.8 L31.6839,57.8 A1,2 0 0 1 32.6839,59.8 L32.6839,70.2 A1,2 0 0 1 31.6839,72.2 L22,72.2 Z" fill="#6366f1" id="svgraph-29-s0-pt-3" tabindex="0"><title>Crypto: 184</title></path><path class="series-0" d="M22,75.8 L26.5742,75.8 A1,2 0 0 1 27.5742,77.8 L27.5742,88.2 A1,2 0 0 1 26.5742,90.2 L22,90.2 Z" fill="#6366f1" id="svgraph-29-s0-pt-4" tabindex="0"><title>Other: 96</title></path></svg><text x="0" y="44" font-family="inherit" font-size="12" fill="#374151" text-anchor="start" dominant-baseline="middle">Stripe</text><text x="0" y="116" font-family="inherit" font-size="12" fill="#374151" text-anchor="start" dominant-baseline="middle">PayPal</text><text x="0" y="188" font-family="inherit" font-size="12" fill="#374151" text-anchor="start" dominant-baseline="middle">Bank</text><text x="0" y="260" font-family="inherit" font-size="12" fill="#374151" text-anchor="start" dominant-baseline="middle">Crypto</text><text x="0" y="332" font-family="inherit" font-size="12" fill="#374151" text-anchor="start" dominant-baseline="middle">Other</text><text x="176" y="400" font-family="inherit" font-size="12" fill="#374151" text-anchor="middle" dominant-baseline="text-after-edge">0</text><text x="408.2584" y="400" font-family="inherit" font-size="12" fill="#374151" text-anchor="middle" dominant-baseline="text-after-edge">500</text><text x="640.516" y="400" font-family="inherit" font-size="12" fill="#374151" text-anchor="middle" dominant-baseline="text-after-edge">1,000</text></svg>