<?xml version="1.0" encoding="UTF-8"?>
<svg xmlns="http://www.w3.org/2000/svg" width="800" height="400" viewBox="0 0 800 400"><svg x="0" y="0" width="800" height="400" viewBox="0 0 100 100" preserveAspectRatio="none"><title id="svgraph-27-title">Bar chart</title><desc id="svgraph-27-desc">Bar chart with 1 series across 5 categories. Range: 90 to 210.</desc><line x1="12" x2="98" y1="86" y2="86" stroke="#e5e7eb" stroke-width="1" vector-effect="non-scaling-stroke"/><line x1="12" x2="98" y1="66.4762" y2="66.4762" stroke="#e5e7eb" stroke-width="1" vector-effect="non-scaling-stroke"/><line x1="12" x2="98" y1="46.9524" y2="46.9524" stroke="#e5e7eb" stroke-width="1" vector-effect="non-scaling-stroke"/><line x1="12" x2="98" y1="27.4286" y2="27.4286" stroke="#e5e7eb" stroke-width="1" vector-effect="non-scaling-stroke"/><line x1="12" x2="98" y1="7.9048" y2="7.9048" stroke="#e5e7eb" stroke-width="1" vector-effect="non-scaling-stroke"/><path class="series-0" d="M13.72,86 L13.72,43.1429 A2,4 0 0 1 15.72,39.1429 L25.48,39.1429 A2,4 0 0 1 27.48,43.1429 L27.48,86 Z" fill="#10b981" id="svgraph-27-s0-pt-0" tabindex="0"><title>Jan: 120</title></path><path class="series-0" d="M30.92,86 L30.92,19.7143 A2,4 0 0 1 32.92,15.7143 L42.68,15.7143 A2,4 0 0 1 44.68,19.7143 L44.68,86 Z" fill="#10b981" id="svgraph-27-s0-pt-1" tabindex="0"><title>Feb: 180</title></path><path class="series-0" d="M48.12,86 L48.12,54.8571 A2,4 0 0 1 50.12,50.8571 L59.88,50.8571 A2,4 0 0 1 61.88,54.8571 L61.88,86 Z" fill="#10b981" id="svgraph-27-s0-pt-2" tabindex="0"><title>Mar: 90</title></path><path class="series-0" d="M65.32,86 L65.32,8 A2,4 0 0 1 67.32,4 L77.08,4 A2,4 0 0 1 79.08,8 L79.08,86 Z" fill="#10b981" id="svgraph-27-s0-pt-3" tabindex="0"><title>Apr: 210</title></path><path class="series-0" d="M82.52,86 L82.52,25.5714 A2,4 0 0 1 84.52,21.5714 L94.28,21.5714 A2,4 0 0 1 96.28,25.5714 L96.28,86 Z" fill="#10b981" id="svgraph-27-s0-pt-4" tabindex="0"><title>May: 165</title></path><line x1="12" x2="98" y1="86" y2="86" stroke="#9ca3af" stroke-width="1" vector-effect="non-scaling-stroke"/></svg><text x="0" y="344" font-family="inherit" font-size="12" fill="#374151" text-anchor="start" dominant-baseline="middle">0</text><text x="0" y="265.9048" font-family="inherit" font-size="12" fill="#374151" text-anchor="start" dominant-baseline="middle">50</text><text x="0" y="187.8096" font-family="inherit" font-size="12" fill="#374151" text-anchor="start" dominant-baseline="middle">100</text><text x="0" y="109.7144" font-family="inherit" font-size="12" fill="#374151" text-anchor="start" dominant-baseline="middle">150</text><text x="0" y="31.6192" font-family="inherit" font-size="12" fill="#374151" text-anchor="start" dominant-baseline="middle">200</text><text x="164.8" y="400" font-family="inherit" font-size="12" fill="#374151" text-anchor="middle" dominant-baseline="text-after-edge">Jan</text><text x="302.4" y="400" font-family="inherit" font-size="12" fill="#374151" text-anchor="middle" dominant-baseline="text-after-edge">Feb</text><text x="440" y="400" font-family="inherit" font-size="12" fill="#374151" text-anchor="middle" dominant-baseline="text-after-edge">Mar</text><text x="577.6" y="400" font-family="inherit" font-size="12" fill="#374151" text-anchor="middle" dominant-baseline="text-after-edge">Apr</text><text x="715.2" y="400" font-family="inherit" font-size="12" fill="#374151" text-anchor="middle" dominant-baseline="text-after-edge">May</text></svg>