<?xml version="1.0" encoding="UTF-8"?>
<svg xmlns="http://www.w3.org/2000/svg" width="800" height="400" viewBox="0 0 800 400"><svg x="0" y="0" width="800" height="400" viewBox="0 0 100 100" preserveAspectRatio="none"><title id="svgraph-30-title">Bar chart</title><desc id="svgraph-30-desc">Bar chart with 1 series across 4 categories. Range: 90 to 210.</desc><path class="series-0" d="M15.7625,86 L15.7625,47.1429 A4,8 0 0 1 19.7625,39.1429 L25.7375,39.1429 A4,8 0 0 1 29.7375,47.1429 L29.7375,86 Z" fill="#f59e0b" id="svgraph-30-s0-pt-0" tabindex="0"><title>Jan: 120</title></path><path class="series-0" d="M37.2625,86 L37.2625,23.7143 A4,8 0 0 1 41.2625,15.7143 L47.2375,15.7143 A4,8 0 0 1 51.2375,23.7143 L51.2375,86 Z" fill="#f59e0b" id="svgraph-30-s0-pt-1" tabindex="0"><title>Feb: 180</title></path><path class="series-0" d="M58.7625,86 L58.7625,58.8571 A4,8 0 0 1 62.7625,50.8571 L68.7375,50.8571 A4,8 0 0 1 72.7375,58.8571 L72.7375,86 Z" fill="#f59e0b" id="svgraph-30-s0-pt-2" tabindex="0"><title>Mar: 90</title></path><path class="series-0" d="M80.2625,86 L80.2625,12 A4,8 0 0 1 84.2625,4 L90.2375,4 A4,8 0 0 1 94.2375,12 L94.2375,86 Z" fill="#f59e0b" id="svgraph-30-s0-pt-3" tabindex="0"><title>Apr: 210</title></path><line x1="12" x2="98" y1="86" y2="86" stroke="#9ca3af" stroke-width="1" vector-effect="non-scaling-stroke"/></svg><text x="0" y="344" font-family="inherit" font-size="12" fill="#374151" text-anchor="start" dominant-baseline="middle">0</text><text x="0" y="265.9048" font-family="inherit" font-size="12" fill="#374151" text-anchor="start" dominant-baseline="middle">50</text><text x="0" y="187.8096" font-family="inherit" font-size="12" fill="#374151" text-anchor="start" dominant-baseline="middle">100</text><text x="0" y="109.7144" font-family="inherit" font-size="12" fill="#374151" text-anchor="start" dominant-baseline="middle">150</text><text x="0" y="31.6192" font-family="inherit" font-size="12" fill="#374151" text-anchor="start" dominant-baseline="middle">200</text><text x="182" y="400" font-family="inherit" font-size="12" fill="#374151" text-anchor="middle" dominant-baseline="text-after-edge">Jan</text><text x="354" y="400" font-family="inherit" font-size="12" fill="#374151" text-anchor="middle" dominant-baseline="text-after-edge">Feb</text><text x="526" y="400" font-family="inherit" font-size="12" fill="#374151" text-anchor="middle" dominant-baseline="text-after-edge">Mar</text><text x="698" y="400" font-family="inherit" font-size="12" fill="#374151" text-anchor="middle" dominant-baseline="text-after-edge">Apr</text></svg>