<?xml version="1.0" encoding="UTF-8"?>
<svg xmlns="http://www.w3.org/2000/svg" width="800" height="400" viewBox="0 0 800 400"><svg x="0" y="0" width="800" height="400" viewBox="0 0 100 100" preserveAspectRatio="none"><title id="svgraph-33-title">Bar chart</title><desc id="svgraph-33-desc">Bar chart with 2 series across 4 categories. Range: 15 to 47.</desc><line x1="12" x2="98" y1="86" y2="86" stroke="#e5e7eb" stroke-width="1" vector-effect="non-scaling-stroke"/><line x1="12" x2="98" y1="68.5532" y2="68.5532" stroke="#e5e7eb" stroke-width="1" vector-effect="non-scaling-stroke"/><line x1="12" x2="98" y1="51.1064" y2="51.1064" stroke="#e5e7eb" stroke-width="1" vector-effect="non-scaling-stroke"/><line x1="12" x2="98" y1="33.6596" y2="33.6596" stroke="#e5e7eb" stroke-width="1" vector-effect="non-scaling-stroke"/><line x1="12" x2="98" y1="16.2128" y2="16.2128" stroke="#e5e7eb" stroke-width="1" vector-effect="non-scaling-stroke"/><line x1="12" x2="98" y1="-1.234" y2="-1.234" stroke="#e5e7eb" stroke-width="1" vector-effect="non-scaling-stroke"/><path class="series-0" d="M14.15,86 L14.15,33.1702 A1.5,3 0 0 1 15.65,30.1702 L21.25,30.1702 A1.5,3 0 0 1 22.75,33.1702 L22.75,86 Z" fill="#3b82f6" id="svgraph-33-s0-pt-0" tabindex="0"><title>Q1: 32</title></path><path class="series-0" d="M35.65,86 L35.65,17.4681 A1.5,3 0 0 1 37.15,14.4681 L42.75,14.4681 A1.5,3 0 0 1 44.25,17.4681 L44.25,86 Z" fill="#3b82f6" id="svgraph-33-s0-pt-1" tabindex="0"><title>Q2: 41</title></path><path class="series-0" d="M57.15,86 L57.15,40.1489 A1.5,3 0 0 1 58.65,37.1489 L64.25,37.1489 A1.5,3 0 0 1 65.75,40.1489 L65.75,86 Z" fill="#3b82f6" id="svgraph-33-s0-pt-2" tabindex="0"><title>Q3: 28</title></path><path class="series-0" d="M78.65,86 L78.65,7 A1.5,3 0 0 1 80.15,4 L85.75,4 A1.5,3 0 0 1 87.25,7 L87.25,86 Z" fill="#3b82f6" id="svgraph-33-s0-pt-3" tabindex="0"><title>Q4: 47</title></path><path class="series-1" d="M22.75,86 L22.75,57.5957 A1.5,3 0 0 1 24.25,54.5957 L29.85,54.5957 A1.5,3 0 0 1 31.35,57.5957 L31.35,86 Z" fill="#10b981" id="svgraph-33-s1-pt-0" tabindex="0"><title>Costs — Q1: 18</title></path><path class="series-1" d="M44.25,86 L44.25,50.617 A1.5,3 0 0 1 45.75,47.617 L51.35,47.617 A1.5,3 0 0 1 52.85,50.617 L52.85,86 Z" fill="#10b981" id="svgraph-33-s1-pt-1" tabindex="0"><title>Costs — Q2: 22</title></path><path class="series-1" d="M65.75,86 L65.75,62.8298 A1.5,3 0 0 1 67.25,59.8298 L72.85,59.8298 A1.5,3 0 0 1 74.35,62.8298 L74.35,86 Z" fill="#10b981" id="svgraph-33-s1-pt-2" tabindex="0"><title>Costs — Q3: 15</title></path><path class="series-1" d="M87.25,86 L87.25,43.6383 A1.5,3 0 0 1 88.75,40.6383 L94.35,40.6383 A1.5,3 0 0 1 95.85,43.6383 L95.85,86 Z" fill="#10b981" id="svgraph-33-s1-pt-3" tabindex="0"><title>Costs — Q4: 26</title></path><line x1="12" x2="98" y1="86" y2="86" stroke="#9ca3af" stroke-width="1" vector-effect="non-scaling-stroke"/></svg><text x="0" y="344" font-family="inherit" font-size="12" fill="#374151" text-anchor="start" dominant-baseline="middle">0</text><text x="0" y="274.2128" font-family="inherit" font-size="12" fill="#374151" text-anchor="start" dominant-baseline="middle">10</text><text x="0" y="204.4256" font-family="inherit" font-size="12" fill="#374151" text-anchor="start" dominant-baseline="middle">20</text><text x="0" y="134.6384" font-family="inherit" font-size="12" fill="#374151" text-anchor="start" dominant-baseline="middle">30</text><text x="0" y="64.8512" font-family="inherit" font-size="12" fill="#374151" text-anchor="start" dominant-baseline="middle">40</text><text x="0" y="0" font-family="inherit" font-size="12" fill="#374151" text-anchor="start" dominant-baseline="middle">50</text><text x="182" y="400" font-family="inherit" font-size="12" fill="#374151" text-anchor="middle" dominant-baseline="text-after-edge">Q1</text><text x="354" y="400" font-family="inherit" font-size="12" fill="#374151" text-anchor="middle" dominant-baseline="text-after-edge">Q2</text><text x="526" y="400" font-family="inherit" font-size="12" fill="#374151" text-anchor="middle" dominant-baseline="text-after-edge">Q3</text><text x="698" y="400" font-family="inherit" font-size="12" fill="#374151" text-anchor="middle" dominant-baseline="text-after-edge">Q4</text></svg>