<?xml version="1.0" encoding="UTF-8"?>
<svg xmlns="http://www.w3.org/2000/svg" width="800" height="400" viewBox="0 0 800 400"><svg x="0" y="0" width="800" height="400" viewBox="0 0 100 100" preserveAspectRatio="none"><line x1="12" x2="98" y1="86" y2="86" stroke="#e5e7eb" stroke-width="1" vector-effect="non-scaling-stroke"/><line x1="12" x2="98" y1="68.5532" y2="68.5532" stroke="#e5e7eb" stroke-width="1" vector-effect="non-scaling-stroke"/><line x1="12" x2="98" y1="51.1064" y2="51.1064" stroke="#e5e7eb" stroke-width="1" vector-effect="non-scaling-stroke"/><line x1="12" x2="98" y1="33.6596" y2="33.6596" stroke="#e5e7eb" stroke-width="1" vector-effect="non-scaling-stroke"/><line x1="12" x2="98" y1="16.2128" y2="16.2128" stroke="#e5e7eb" stroke-width="1" vector-effect="non-scaling-stroke"/><line x1="12" x2="98" y1="-1.234" y2="-1.234" stroke="#e5e7eb" stroke-width="1" vector-effect="non-scaling-stroke"/><rect class="series-0" x="13.2286" y="47.617" width="9.8286" height="38.383" fill="#10b981" rx="2" ry="2" id="svgraph-9-s0-pt-0" tabindex="0"><title>Mon: 22</title></rect><rect class="series-0" x="25.5143" y="14.4681" width="9.8286" height="71.5319" fill="#10b981" rx="2" ry="2" id="svgraph-9-s0-pt-1" tabindex="0"><title>Tue: 41</title></rect><rect class="series-0" x="37.8" y="28.4255" width="9.8286" height="57.5745" fill="#10b981" rx="2" ry="2" id="svgraph-9-s0-pt-2" tabindex="0"><title>Wed: 33</title></rect><rect class="series-0" x="50.0857" y="37.1489" width="9.8286" height="48.8511" fill="#10b981" rx="2" ry="2" id="svgraph-9-s0-pt-3" tabindex="0"><title>Thu: 28</title></rect><rect class="series-0" x="62.3714" y="4" width="9.8286" height="82" fill="#10b981" rx="2" ry="2" id="svgraph-9-s0-pt-4" tabindex="0"><title>Fri: 47</title></rect><rect class="series-0" x="74.6571" y="19.7021" width="9.8286" height="66.2979" fill="#10b981" rx="2" ry="2" id="svgraph-9-s0-pt-5" tabindex="0"><title>Sat: 38</title></rect><rect class="series-0" x="86.9429" y="52.8511" width="9.8286" height="33.1489" fill="#10b981" rx="2" ry="2" id="svgraph-9-s0-pt-6" tabindex="0"><title>Sun: 19</title></rect><line x1="12" x2="98" y1="86" y2="86" stroke="#9ca3af" stroke-width="1" vector-effect="non-scaling-stroke"/></svg><text x="0" y="344" font-family="inherit" font-size="12" fill="#374151" text-anchor="start" dominant-baseline="middle">0</text><text x="0" y="274.2128" font-family="inherit" font-size="12" fill="#374151" text-anchor="start" dominant-baseline="middle">10</text><text x="0" y="204.4256" font-family="inherit" font-size="12" fill="#374151" text-anchor="start" dominant-baseline="middle">20</text><text x="0" y="134.6384" font-family="inherit" font-size="12" fill="#374151" text-anchor="start" dominant-baseline="middle">30</text><text x="0" y="64.8512" font-family="inherit" font-size="12" fill="#374151" text-anchor="start" dominant-baseline="middle">40</text><text x="0" y="0" font-family="inherit" font-size="12" fill="#374151" text-anchor="start" dominant-baseline="middle">50</text><text x="145.1432" y="400" font-family="inherit" font-size="12" fill="#374151" text-anchor="middle" dominant-baseline="text-after-edge">Mon</text><text x="243.4288" y="400" font-family="inherit" font-size="12" fill="#374151" text-anchor="middle" dominant-baseline="text-after-edge">Tue</text><text x="341.7144" y="400" font-family="inherit" font-size="12" fill="#374151" text-anchor="middle" dominant-baseline="text-after-edge">Wed</text><text x="440" y="400" font-family="inherit" font-size="12" fill="#374151" text-anchor="middle" dominant-baseline="text-after-edge">Thu</text><text x="538.2856" y="400" font-family="inherit" font-size="12" fill="#374151" text-anchor="middle" dominant-baseline="text-after-edge">Fri</text><text x="636.5712" y="400" font-family="inherit" font-size="12" fill="#374151" text-anchor="middle" dominant-baseline="text-after-edge">Sat</text><text x="734.8568" y="400" font-family="inherit" font-size="12" fill="#374151" text-anchor="middle" dominant-baseline="text-after-edge">Sun</text></svg>