<?xml version="1.0" encoding="UTF-8"?>
<svg xmlns="http://www.w3.org/2000/svg" width="800" height="400" viewBox="0 0 800 400"><svg x="0" y="0" width="800" height="400" viewBox="0 0 100 100" preserveAspectRatio="none"><title id="svgraph-8-title">Bar chart</title><desc id="svgraph-8-desc">Bar chart with 2 series across 4 categories. Range: 15 to 47.</desc><line x1="12" x2="98" y1="86" y2="86" stroke="#e5e7eb" stroke-width="1" vector-effect="non-scaling-stroke"/><line x1="12" x2="98" y1="68.5532" y2="68.5532" stroke="#e5e7eb" stroke-width="1" vector-effect="non-scaling-stroke"/><line x1="12" x2="98" y1="51.1064" y2="51.1064" stroke="#e5e7eb" stroke-width="1" vector-effect="non-scaling-stroke"/><line x1="12" x2="98" y1="33.6596" y2="33.6596" stroke="#e5e7eb" stroke-width="1" vector-effect="non-scaling-stroke"/><line x1="12" x2="98" y1="16.2128" y2="16.2128" stroke="#e5e7eb" stroke-width="1" vector-effect="non-scaling-stroke"/><line x1="12" x2="98" y1="-1.234" y2="-1.234" stroke="#e5e7eb" stroke-width="1" vector-effect="non-scaling-stroke"/><rect class="series-0" x="14.15" y="30.1702" width="8.6" height="55.8298" fill="#3b82f6" rx="1.5" ry="1.5" id="svgraph-8-s0-pt-0" tabindex="0"><title>Q1: 32</title></rect><rect class="series-0" x="35.65" y="14.4681" width="8.6" height="71.5319" fill="#3b82f6" rx="1.5" ry="1.5" id="svgraph-8-s0-pt-1" tabindex="0"><title>Q2: 41</title></rect><rect class="series-0" x="57.15" y="37.1489" width="8.6" height="48.8511" fill="#3b82f6" rx="1.5" ry="1.5" id="svgraph-8-s0-pt-2" tabindex="0"><title>Q3: 28</title></rect><rect class="series-0" x="78.65" y="4" width="8.6" height="82" fill="#3b82f6" rx="1.5" ry="1.5" id="svgraph-8-s0-pt-3" tabindex="0"><title>Q4: 47</title></rect><rect class="series-1" x="22.75" y="54.5957" width="8.6" height="31.4043" fill="#10b981" rx="1.5" ry="1.5" id="svgraph-8-s1-pt-0" tabindex="0"><title>Costs — Q1: 18</title></rect><rect class="series-1" x="44.25" y="47.617" width="8.6" height="38.383" fill="#10b981" rx="1.5" ry="1.5" id="svgraph-8-s1-pt-1" tabindex="0"><title>Costs — Q2: 22</title></rect><rect class="series-1" x="65.75" y="59.8298" width="8.6" height="26.1702" fill="#10b981" rx="1.5" ry="1.5" id="svgraph-8-s1-pt-2" tabindex="0"><title>Costs — Q3: 15</title></rect><rect class="series-1" x="87.25" y="40.6383" width="8.6" height="45.3617" fill="#10b981" rx="1.5" ry="1.5" id="svgraph-8-s1-pt-3" tabindex="0"><title>Costs — Q4: 26</title></rect><line x1="12" x2="98" y1="86" y2="86" stroke="#9ca3af" stroke-width="1" vector-effect="non-scaling-stroke"/></svg><text x="0" y="344" font-family="inherit" font-size="12" fill="#374151" text-anchor="start" dominant-baseline="middle">0</text><text x="0" y="274.2128" font-family="inherit" font-size="12" fill="#374151" text-anchor="start" dominant-baseline="middle">10</text><text x="0" y="204.4256" font-family="inherit" font-size="12" fill="#374151" text-anchor="start" dominant-baseline="middle">20</text><text x="0" y="134.6384" font-family="inherit" font-size="12" fill="#374151" text-anchor="start" dominant-baseline="middle">30</text><text x="0" y="64.8512" font-family="inherit" font-size="12" fill="#374151" text-anchor="start" dominant-baseline="middle">40</text><text x="0" y="0" font-family="inherit" font-size="12" fill="#374151" text-anchor="start" dominant-baseline="middle">50</text><text x="182" y="400" font-family="inherit" font-size="12" fill="#374151" text-anchor="middle" dominant-baseline="text-after-edge">Q1</text><text x="354" y="400" font-family="inherit" font-size="12" fill="#374151" text-anchor="middle" dominant-baseline="text-after-edge">Q2</text><text x="526" y="400" font-family="inherit" font-size="12" fill="#374151" text-anchor="middle" dominant-baseline="text-after-edge">Q3</text><text x="698" y="400" font-family="inherit" font-size="12" fill="#374151" text-anchor="middle" dominant-baseline="text-after-edge">Q4</text></svg>