<?xml version="1.0" encoding="UTF-8"?>
<svg xmlns="http://www.w3.org/2000/svg" width="800" height="400" viewBox="0 0 800 400"><svg x="0" y="0" width="800" height="400" viewBox="0 0 100 100" preserveAspectRatio="none"><title id="svgraph-28-title">Bar chart</title><desc id="svgraph-28-desc">Bar chart with 3 series across 4 categories. Range: 5 to 47.</desc><line x1="12" x2="98" y1="86" y2="86" stroke="#e5e7eb" stroke-width="1" vector-effect="non-scaling-stroke"/><line x1="12" x2="98" y1="66" y2="66" stroke="#e5e7eb" stroke-width="1" vector-effect="non-scaling-stroke"/><line x1="12" x2="98" y1="46" y2="46" stroke="#e5e7eb" stroke-width="1" vector-effect="non-scaling-stroke"/><line x1="12" x2="98" y1="26" y2="26" stroke="#e5e7eb" stroke-width="1" vector-effect="non-scaling-stroke"/><line x1="12" x2="98" y1="6" y2="6" stroke="#e5e7eb" stroke-width="1" vector-effect="non-scaling-stroke"/><rect class="series-0" x="14.15" y="54" width="17.2" height="32" fill="#3b82f6" id="svgraph-28-s0-pt-0" tabindex="0"><title>Q1: 32</title></rect><rect class="series-0" x="35.65" y="45" width="17.2" height="41" fill="#3b82f6" id="svgraph-28-s0-pt-1" tabindex="0"><title>Q2: 41</title></rect><rect class="series-0" x="57.15" y="58" width="17.2" height="28" fill="#3b82f6" id="svgraph-28-s0-pt-2" tabindex="0"><title>Q3: 28</title></rect><rect class="series-0" x="78.65" y="39" width="17.2" height="47" fill="#3b82f6" id="svgraph-28-s0-pt-3" tabindex="0"><title>Q4: 47</title></rect><rect class="series-1" x="14.15" y="36" width="17.2" height="18" fill="#10b981" id="svgraph-28-s1-pt-0" tabindex="0"><title>Costs — Q1: 18</title></rect><rect class="series-1" x="35.65" y="23" width="17.2" height="22" fill="#10b981" id="svgraph-28-s1-pt-1" tabindex="0"><title>Costs — Q2: 22</title></rect><rect class="series-1" x="57.15" y="43" width="17.2" height="15" fill="#10b981" id="svgraph-28-s1-pt-2" tabindex="0"><title>Costs — Q3: 15</title></rect><rect class="series-1" x="78.65" y="13" width="17.2" height="26" fill="#10b981" id="svgraph-28-s1-pt-3" tabindex="0"><title>Costs — Q4: 26</title></rect><path class="series-2" d="M14.15,36 L14.15,33 A1.5,3 0 0 1 15.65,30 L29.85,30 A1.5,3 0 0 1 31.35,33 L31.35,36 Z" fill="#f59e0b" id="svgraph-28-s2-pt-0" tabindex="0"><title>Tax — Q1: 6</title></path><path class="series-2" d="M35.65,23 L35.65,18 A1.5,3 0 0 1 37.15,15 L51.35,15 A1.5,3 0 0 1 52.85,18 L52.85,23 Z" fill="#f59e0b" id="svgraph-28-s2-pt-1" tabindex="0"><title>Tax — Q2: 8</title></path><path class="series-2" d="M57.15,43 L57.15,41 A1.5,3 0 0 1 58.65,38 L72.85,38 A1.5,3 0 0 1 74.35,41 L74.35,43 Z" fill="#f59e0b" id="svgraph-28-s2-pt-2" tabindex="0"><title>Tax — Q3: 5</title></path><path class="series-2" d="M78.65,13 L78.65,7 A1.5,3 0 0 1 80.15,4 L94.35,4 A1.5,3 0 0 1 95.85,7 L95.85,13 Z" fill="#f59e0b" id="svgraph-28-s2-pt-3" tabindex="0"><title>Tax — Q4: 9</title></path><line x1="12" x2="98" y1="86" y2="86" stroke="#9ca3af" stroke-width="1" vector-effect="non-scaling-stroke"/></svg><text x="0" y="344" font-family="inherit" font-size="12" fill="#374151" text-anchor="start" dominant-baseline="middle">0</text><text x="0" y="264" font-family="inherit" font-size="12" fill="#374151" text-anchor="start" dominant-baseline="middle">20</text><text x="0" y="184" font-family="inherit" font-size="12" fill="#374151" text-anchor="start" dominant-baseline="middle">40</text><text x="0" y="104" font-family="inherit" font-size="12" fill="#374151" text-anchor="start" dominant-baseline="middle">60</text><text x="0" y="24" font-family="inherit" font-size="12" fill="#374151" text-anchor="start" dominant-baseline="middle">80</text><text x="182" y="400" font-family="inherit" font-size="12" fill="#374151" text-anchor="middle" dominant-baseline="text-after-edge">Q1</text><text x="354" y="400" font-family="inherit" font-size="12" fill="#374151" text-anchor="middle" dominant-baseline="text-after-edge">Q2</text><text x="526" y="400" font-family="inherit" font-size="12" fill="#374151" text-anchor="middle" dominant-baseline="text-after-edge">Q3</text><text x="698" y="400" font-family="inherit" font-size="12" fill="#374151" text-anchor="middle" dominant-baseline="text-after-edge">Q4</text></svg>