<?xml version="1.0" encoding="UTF-8"?>
<svg xmlns="http://www.w3.org/2000/svg" width="800" height="400" viewBox="0 0 800 400"><svg x="0" y="0" width="800" height="400" viewBox="0 0 100 100" preserveAspectRatio="none"><title id="svgraph-32-title">Bar chart</title><desc id="svgraph-32-desc">Bar chart with 1 series across 7 categories. Range: 19 to 47.</desc><line x1="12" x2="98" y1="86" y2="86" stroke="#e5e7eb" stroke-width="1" vector-effect="non-scaling-stroke"/><line x1="12" x2="98" y1="68.5532" y2="68.5532" stroke="#e5e7eb" stroke-width="1" vector-effect="non-scaling-stroke"/><line x1="12" x2="98" y1="51.1064" y2="51.1064" stroke="#e5e7eb" stroke-width="1" vector-effect="non-scaling-stroke"/><line x1="12" x2="98" y1="33.6596" y2="33.6596" stroke="#e5e7eb" stroke-width="1" vector-effect="non-scaling-stroke"/><line x1="12" x2="98" y1="16.2128" y2="16.2128" stroke="#e5e7eb" stroke-width="1" vector-effect="non-scaling-stroke"/><line x1="12" x2="98" y1="-1.234" y2="-1.234" stroke="#e5e7eb" stroke-width="1" vector-effect="non-scaling-stroke"/><path class="series-0" d="M13.2286,86 L13.2286,51.617 A2,4 0 0 1 15.2286,47.617 L21.0571,47.617 A2,4 0 0 1 23.0571,51.617 L23.0571,86 Z" fill="#10b981" id="svgraph-32-s0-pt-0" tabindex="0"><title>Mon: 22</title></path><path class="series-0" d="M25.5143,86 L25.5143,18.4681 A2,4 0 0 1 27.5143,14.4681 L33.3429,14.4681 A2,4 0 0 1 35.3429,18.4681 L35.3429,86 Z" fill="#10b981" id="svgraph-32-s0-pt-1" tabindex="0"><title>Tue: 41</title></path><path class="series-0" d="M37.8,86 L37.8,32.4255 A2,4 0 0 1 39.8,28.4255 L45.6286,28.4255 A2,4 0 0 1 47.6286,32.4255 L47.6286,86 Z" fill="#10b981" id="svgraph-32-s0-pt-2" tabindex="0"><title>Wed: 33</title></path><path class="series-0" d="M50.0857,86 L50.0857,41.1489 A2,4 0 0 1 52.0857,37.1489 L57.9143,37.1489 A2,4 0 0 1 59.9143,41.1489 L59.9143,86 Z" fill="#10b981" id="svgraph-32-s0-pt-3" tabindex="0"><title>Thu: 28</title></path><path class="series-0" d="M62.3714,86 L62.3714,8 A2,4 0 0 1 64.3714,4 L70.2,4 A2,4 0 0 1 72.2,8 L72.2,86 Z" fill="#10b981" id="svgraph-32-s0-pt-4" tabindex="0"><title>Fri: 47</title></path><path class="series-0" d="M74.6571,86 L74.6571,23.7021 A2,4 0 0 1 76.6571,19.7021 L82.4857,19.7021 A2,4 0 0 1 84.4857,23.7021 L84.4857,86 Z" fill="#10b981" id="svgraph-32-s0-pt-5" tabindex="0"><title>Sat: 38</title></path><path class="series-0" d="M86.9429,86 L86.9429,56.8511 A2,4 0 0 1 88.9429,52.8511 L94.7714,52.8511 A2,4 0 0 1 96.7714,56.8511 L96.7714,86 Z" fill="#10b981" id="svgraph-32-s0-pt-6" tabindex="0"><title>Sun: 19</title></path><line x1="12" x2="98" y1="86" y2="86" stroke="#9ca3af" stroke-width="1" vector-effect="non-scaling-stroke"/></svg><text x="0" y="344" font-family="inherit" font-size="12" fill="#374151" text-anchor="start" dominant-baseline="middle">0</text><text x="0" y="274.2128" font-family="inherit" font-size="12" fill="#374151" text-anchor="start" dominant-baseline="middle">10</text><text x="0" y="204.4256" font-family="inherit" font-size="12" fill="#374151" text-anchor="start" dominant-baseline="middle">20</text><text x="0" y="134.6384" font-family="inherit" font-size="12" fill="#374151" text-anchor="start" dominant-baseline="middle">30</text><text x="0" y="64.8512" font-family="inherit" font-size="12" fill="#374151" text-anchor="start" dominant-baseline="middle">40</text><text x="0" y="0" font-family="inherit" font-size="12" fill="#374151" text-anchor="start" dominant-baseline="middle">50</text><text x="145.1432" y="400" font-family="inherit" font-size="12" fill="#374151" text-anchor="middle" dominant-baseline="text-after-edge">Mon</text><text x="243.4288" y="400" font-family="inherit" font-size="12" fill="#374151" text-anchor="middle" dominant-baseline="text-after-edge">Tue</text><text x="341.7144" y="400" font-family="inherit" font-size="12" fill="#374151" text-anchor="middle" dominant-baseline="text-after-edge">Wed</text><text x="440" y="400" font-family="inherit" font-size="12" fill="#374151" text-anchor="middle" dominant-baseline="text-after-edge">Thu</text><text x="538.2856" y="400" font-family="inherit" font-size="12" fill="#374151" text-anchor="middle" dominant-baseline="text-after-edge">Fri</text><text x="636.5712" y="400" font-family="inherit" font-size="12" fill="#374151" text-anchor="middle" dominant-baseline="text-after-edge">Sat</text><text x="734.8568" y="400" font-family="inherit" font-size="12" fill="#374151" text-anchor="middle" dominant-baseline="text-after-edge">Sun</text></svg>