<?xml version="1.0" encoding="UTF-8"?>
<svg xmlns="http://www.w3.org/2000/svg" width="800" height="400" viewBox="0 0 800 400"><svg x="0" y="0" width="800" height="400" viewBox="0 0 100 100" preserveAspectRatio="none"><line x1="12" x2="98" y1="86" y2="86" stroke="#e5e7eb" stroke-width="1" vector-effect="non-scaling-stroke"/><line x1="12" x2="98" y1="66" y2="66" stroke="#e5e7eb" stroke-width="1" vector-effect="non-scaling-stroke"/><line x1="12" x2="98" y1="46" y2="46" stroke="#e5e7eb" stroke-width="1" vector-effect="non-scaling-stroke"/><line x1="12" x2="98" y1="26" y2="26" stroke="#e5e7eb" stroke-width="1" vector-effect="non-scaling-stroke"/><line x1="12" x2="98" y1="6" y2="6" stroke="#e5e7eb" stroke-width="1" vector-effect="non-scaling-stroke"/><rect class="series-0" x="14.15" y="54" width="17.2" height="32" fill="#3b82f6" rx="1.5" ry="1.5" id="svgraph-5-s0-pt-0" tabindex="0"><title>Q1: 32</title></rect><rect class="series-0" x="35.65" y="45" width="17.2" height="41" fill="#3b82f6" rx="1.5" ry="1.5" id="svgraph-5-s0-pt-1" tabindex="0"><title>Q2: 41</title></rect><rect class="series-0" x="57.15" y="58" width="17.2" height="28" fill="#3b82f6" rx="1.5" ry="1.5" id="svgraph-5-s0-pt-2" tabindex="0"><title>Q3: 28</title></rect><rect class="series-0" x="78.65" y="39" width="17.2" height="47" fill="#3b82f6" rx="1.5" ry="1.5" id="svgraph-5-s0-pt-3" tabindex="0"><title>Q4: 47</title></rect><rect class="series-1" x="14.15" y="36" width="17.2" height="18" fill="#10b981" rx="1.5" ry="1.5" id="svgraph-5-s1-pt-0" tabindex="0"><title>Costs — Q1: 18</title></rect><rect class="series-1" x="35.65" y="23" width="17.2" height="22" fill="#10b981" rx="1.5" ry="1.5" id="svgraph-5-s1-pt-1" tabindex="0"><title>Costs — Q2: 22</title></rect><rect class="series-1" x="57.15" y="43" width="17.2" height="15" fill="#10b981" rx="1.5" ry="1.5" id="svgraph-5-s1-pt-2" tabindex="0"><title>Costs — Q3: 15</title></rect><rect class="series-1" x="78.65" y="13" width="17.2" height="26" fill="#10b981" rx="1.5" ry="1.5" id="svgraph-5-s1-pt-3" tabindex="0"><title>Costs — Q4: 26</title></rect><rect class="series-2" x="14.15" y="30" width="17.2" height="6" fill="#f59e0b" rx="1.5" ry="1.5" id="svgraph-5-s2-pt-0" tabindex="0"><title>Tax — Q1: 6</title></rect><rect class="series-2" x="35.65" y="15" width="17.2" height="8" fill="#f59e0b" rx="1.5" ry="1.5" id="svgraph-5-s2-pt-1" tabindex="0"><title>Tax — Q2: 8</title></rect><rect class="series-2" x="57.15" y="38" width="17.2" height="5" fill="#f59e0b" rx="1.5" ry="1.5" id="svgraph-5-s2-pt-2" tabindex="0"><title>Tax — Q3: 5</title></rect><rect class="series-2" x="78.65" y="4" width="17.2" height="9" fill="#f59e0b" rx="1.5" ry="1.5" id="svgraph-5-s2-pt-3" tabindex="0"><title>Tax — Q4: 9</title></rect><line x1="12" x2="98" y1="86" y2="86" stroke="#9ca3af" stroke-width="1" vector-effect="non-scaling-stroke"/></svg><text x="0" y="344" font-family="inherit" font-size="12" fill="#374151" text-anchor="start" dominant-baseline="middle">0</text><text x="0" y="264" font-family="inherit" font-size="12" fill="#374151" text-anchor="start" dominant-baseline="middle">20</text><text x="0" y="184" font-family="inherit" font-size="12" fill="#374151" text-anchor="start" dominant-baseline="middle">40</text><text x="0" y="104" font-family="inherit" font-size="12" fill="#374151" text-anchor="start" dominant-baseline="middle">60</text><text x="0" y="24" font-family="inherit" font-size="12" fill="#374151" text-anchor="start" dominant-baseline="middle">80</text><text x="182" y="400" font-family="inherit" font-size="12" fill="#374151" text-anchor="middle" dominant-baseline="text-after-edge">Q1</text><text x="354" y="400" font-family="inherit" font-size="12" fill="#374151" text-anchor="middle" dominant-baseline="text-after-edge">Q2</text><text x="526" y="400" font-family="inherit" font-size="12" fill="#374151" text-anchor="middle" dominant-baseline="text-after-edge">Q3</text><text x="698" y="400" font-family="inherit" font-size="12" fill="#374151" text-anchor="middle" dominant-baseline="text-after-edge">Q4</text></svg>