<?xml version="1.0" encoding="UTF-8"?>
<svg xmlns="http://www.w3.org/2000/svg" width="800" height="800" viewBox="0 0 800 800"><svg x="0" y="0" width="800" height="800" viewBox="0 0 100 100" preserveAspectRatio="none"><path class="series-0" style="--pop-x:0.9746;--pop-y:0.2241;" d="M50,4 A38,38 0 1 1 33.3991,76.182 L43.3596,55.6728 A15.2,15.2 0 1 0 50,26.8 Z" fill="#3b82f6" id="svgraph-21-pt-0" tabindex="0"><title>Stripe: 1,240</title></path><path class="series-1" style="--pop-x:-0.8811;--pop-y:0.473;" d="M33.3991,76.182 A38,38 0 0 1 12.3372,36.949 L34.9349,39.9796 A15.2,15.2 0 0 0 43.3596,55.6728 Z" fill="#10b981" id="svgraph-21-pt-1" tabindex="0"><title>PayPal: 432</title></path><path class="series-2" style="--pop-x:-0.8335;--pop-y:-0.5526;" d="M12.3372,36.949 A38,38 0 0 1 30.683,9.2761 L42.2732,28.9104 A15.2,15.2 0 0 0 34.9349,39.9796 Z" fill="#f59e0b" id="svgraph-21-pt-2" tabindex="0"><title>Bank: 312</title></path><path class="series-3" style="--pop-x:-0.2635;--pop-y:-0.9647;" d="M30.683,9.2761 A38,38 0 0 1 50,4 L50,26.8 A15.2,15.2 0 0 0 42.2732,28.9104 Z" fill="#ef4444" id="svgraph-21-pt-3" tabindex="0"><title>Crypto: 184</title></path></svg><rect x="8" y="690.4" width="7.2" height="7.2" rx="1.8" fill="#3b82f6"/><text x="20" y="694" font-family="inherit" font-size="12" fill="#374151" text-anchor="start" dominant-baseline="middle">Stripe</text><rect x="208" y="690.4" width="7.2" height="7.2" rx="1.8" fill="#10b981"/><text x="220" y="694" font-family="inherit" font-size="12" fill="#374151" text-anchor="start" dominant-baseline="middle">PayPal</text><rect x="408" y="690.4" width="7.2" height="7.2" rx="1.8" fill="#f59e0b"/><text x="420" y="694" font-family="inherit" font-size="12" fill="#374151" text-anchor="start" dominant-baseline="middle">Bank</text><rect x="608" y="690.4" width="7.2" height="7.2" rx="1.8" fill="#ef4444"/><text x="620" y="694" font-family="inherit" font-size="12" fill="#374151" text-anchor="start" dominant-baseline="middle">Crypto</text></svg>