<?xml version="1.0" encoding="UTF-8"?>
<svg xmlns="http://www.w3.org/2000/svg" width="800" height="800" viewBox="0 0 800 800"><svg x="0" y="0" width="800" height="800" viewBox="0 0 100 100" preserveAspectRatio="none"><title id="svgraph-38-title">Donut chart</title><desc id="svgraph-38-desc">Donut chart with 4 slices totalling 2,168.</desc><path class="series-0" d="M50,4 A38,38 0 1 1 33.3991,76.182 L42.5296,57.3819 A17.1,17.1 0 1 0 50,24.9 Z" fill="#3b82f6" id="svgraph-38-pt-0" tabindex="0"><title>Stripe: 1,240</title></path><path class="series-1" d="M33.3991,76.182 A38,38 0 0 1 12.3372,36.949 L33.0517,39.7271 A17.1,17.1 0 0 0 42.5296,57.3819 Z" fill="#10b981" id="svgraph-38-pt-1" tabindex="0"><title>PayPal: 432</title></path><path class="series-2" d="M12.3372,36.949 A38,38 0 0 1 30.683,9.2761 L41.3073,27.2743 A17.1,17.1 0 0 0 33.0517,39.7271 Z" fill="#f59e0b" id="svgraph-38-pt-2" tabindex="0"><title>Bank: 312</title></path><path class="series-3" d="M30.683,9.2761 A38,38 0 0 1 50,4 L50,24.9 A17.1,17.1 0 0 0 41.3073,27.2743 Z" fill="#ef4444" id="svgraph-38-pt-3" tabindex="0"><title>Crypto: 184</title></path></svg><rect x="8" y="690.4" width="7.2" height="7.2" rx="1.8" fill="#3b82f6"/><text x="20" y="694" font-family="inherit" font-size="12" fill="#374151" text-anchor="start" dominant-baseline="middle">Stripe</text><rect x="208" y="690.4" width="7.2" height="7.2" rx="1.8" fill="#10b981"/><text x="220" y="694" font-family="inherit" font-size="12" fill="#374151" text-anchor="start" dominant-baseline="middle">PayPal</text><rect x="408" y="690.4" width="7.2" height="7.2" rx="1.8" fill="#f59e0b"/><text x="420" y="694" font-family="inherit" font-size="12" fill="#374151" text-anchor="start" dominant-baseline="middle">Bank</text><rect x="608" y="690.4" width="7.2" height="7.2" rx="1.8" fill="#ef4444"/><text x="620" y="694" font-family="inherit" font-size="12" fill="#374151" text-anchor="start" dominant-baseline="middle">Crypto</text></svg>