<?xml version="1.0" encoding="UTF-8"?>
<svg xmlns="http://www.w3.org/2000/svg" width="800" height="800" viewBox="0 0 800 800"><svg x="0" y="0" width="800" height="800" viewBox="0 0 100 100" preserveAspectRatio="none"><path class="series-0" style="--pop-x:0.9746;--pop-y:0.2241;" d="M50.4974,4.0033 A38,38 0 1 1 33.848,76.3964 L42.7316,57.4784 A17.1,17.1 0 1 0 50.2238,24.9015 Z" fill="#3b82f6" id="svgraph-20-pt-0" tabindex="0"><title>Stripe: 1,240</title></path><path class="series-1" style="--pop-x:-0.8811;--pop-y:0.473;" d="M32.9531,75.9618 A38,38 0 0 1 12.2743,37.4425 L33.0234,39.9491 A17.1,17.1 0 0 0 42.3289,57.2828 Z" fill="#10b981" id="svgraph-20-pt-1" tabindex="0"><title>PayPal: 432</title></path><path class="series-2" style="--pop-x:-0.8335;--pop-y:-0.5526;" d="M12.4065,36.4565 A38,38 0 0 1 30.2563,9.5318 L41.1153,27.3893 A17.1,17.1 0 0 0 33.0829,39.5054 Z" fill="#f59e0b" id="svgraph-20-pt-2" tabindex="0"><title>Bank: 312</title></path><path class="series-3" style="--pop-x:-0.2635;--pop-y:-0.9647;" d="M31.113,9.0261 A38,38 0 0 1 49.5026,4.0033 L49.7762,24.9015 A17.1,17.1 0 0 0 41.5008,27.1617 Z" fill="#ef4444" id="svgraph-20-pt-3" tabindex="0"><title>Crypto: 184</title></path></svg><rect x="8" y="690.4" width="7.2" height="7.2" rx="1.8" fill="#3b82f6"/><text x="20" y="694" font-family="inherit" font-size="12" fill="#374151" text-anchor="start" dominant-baseline="middle">Stripe</text><rect x="208" y="690.4" width="7.2" height="7.2" rx="1.8" fill="#10b981"/><text x="220" y="694" font-family="inherit" font-size="12" fill="#374151" text-anchor="start" dominant-baseline="middle">PayPal</text><rect x="408" y="690.4" width="7.2" height="7.2" rx="1.8" fill="#f59e0b"/><text x="420" y="694" font-family="inherit" font-size="12" fill="#374151" text-anchor="start" dominant-baseline="middle">Bank</text><rect x="608" y="690.4" width="7.2" height="7.2" rx="1.8" fill="#ef4444"/><text x="620" y="694" font-family="inherit" font-size="12" fill="#374151" text-anchor="start" dominant-baseline="middle">Crypto</text></svg>