<?xml version="1.0" encoding="UTF-8"?>
<svg xmlns="http://www.w3.org/2000/svg" width="800" height="320" viewBox="0 0 800 320"><svg x="0" y="0" width="800" height="320" viewBox="0 0 100 100" preserveAspectRatio="none"><title id="svgraph-45-title">Line chart</title><desc id="svgraph-45-desc">Line chart with 1 series of 7 points. Range: 12 to 35.</desc><line x1="12" x2="98" y1="77.0313" y2="77.0313" stroke="#e5e7eb" stroke-width="1" vector-effect="non-scaling-stroke"/><line x1="12" x2="98" y1="55.6771" y2="55.6771" stroke="#e5e7eb" stroke-width="1" vector-effect="non-scaling-stroke"/><line x1="12" x2="98" y1="34.3229" y2="34.3229" stroke="#e5e7eb" stroke-width="1" vector-effect="non-scaling-stroke"/><line x1="12" x2="98" y1="12.9688" y2="12.9688" stroke="#e5e7eb" stroke-width="1" vector-effect="non-scaling-stroke"/><line x1="12" x2="12" y1="4" y2="86" stroke="#9ca3af" stroke-width="1" vector-effect="non-scaling-stroke"/><line x1="12" x2="98" y1="86" y2="86" stroke="#9ca3af" stroke-width="1" vector-effect="non-scaling-stroke"/><path class="series-0" d="M12,72.7604 L26.3333,59.9479 L40.6667,47.1354 L55,51.4063 L69.3333,34.3229 L83.6667,40.7292 L98,23.6458" fill="none" stroke="#3b82f6" stroke-width="2" stroke-linecap="round" stroke-linejoin="round" vector-effect="non-scaling-stroke"/><path class="svgraph-errorbars series-0" d="M12,79.1667 L12,66.3542 M11.36,79.1667 L12.64,79.1667 M11.36,66.3542 L12.64,66.3542 M26.3333,68.4896 L26.3333,51.4063 M25.6933,68.4896 L26.9733,68.4896 M25.6933,51.4063 L26.9733,51.4063 M40.6667,57.8125 L40.6667,36.4583 M40.0267,57.8125 L41.3067,57.8125 M40.0267,36.4583 L41.3067,36.4583 M55,59.9479 L55,42.8646 M54.36,59.9479 L55.64,59.9479 M54.36,42.8646 L55.64,42.8646 M69.3333,45 L69.3333,23.6458 M68.6933,45 L69.9733,45 M68.6933,23.6458 L69.9733,23.6458 M83.6667,51.4063 L83.6667,30.0521 M83.0267,51.4063 L84.3067,51.4063 M83.0267,30.0521 L84.3067,30.0521 M98,36.4583 L98,10.8333 M97.36,36.4583 L98.64,36.4583 M97.36,10.8333 L98.64,10.8333" fill="none" stroke="#3b82f6" stroke-width="1" stroke-linecap="round" vector-effect="non-scaling-stroke"/><g class="series-0"><ellipse cx="12" cy="72.7604" rx="0.48" ry="1.2" fill="#3b82f6"><title>Measurement — W1: 12 (9–15)</title></ellipse><ellipse id="svgraph-45-s0-pt-0" cx="12" cy="72.7604" rx="1.6" ry="4" fill="transparent" tabindex="0"><title>Measurement — W1: 12 (9–15)</title></ellipse></g><g class="series-0"><ellipse cx="26.3333" cy="59.9479" rx="0.48" ry="1.2" fill="#3b82f6"><title>Measurement — W2: 18 (14–22)</title></ellipse><ellipse id="svgraph-45-s0-pt-1" cx="26.3333" cy="59.9479" rx="1.6" ry="4" fill="transparent" tabindex="0"><title>Measurement — W2: 18 (14–22)</title></ellipse></g><g class="series-0"><ellipse cx="40.6667" cy="47.1354" rx="0.48" ry="1.2" fill="#3b82f6"><title>Measurement — W3: 24 (19–29)</title></ellipse><ellipse id="svgraph-45-s0-pt-2" cx="40.6667" cy="47.1354" rx="1.6" ry="4" fill="transparent" tabindex="0"><title>Measurement — W3: 24 (19–29)</title></ellipse></g><g class="series-0"><ellipse cx="55" cy="51.4063" rx="0.48" ry="1.2" fill="#3b82f6"><title>Measurement — W4: 22 (18–26)</title></ellipse><ellipse id="svgraph-45-s0-pt-3" cx="55" cy="51.4063" rx="1.6" ry="4" fill="transparent" tabindex="0"><title>Measurement — W4: 22 (18–26)</title></ellipse></g><g class="series-0"><ellipse cx="69.3333" cy="34.3229" rx="0.48" ry="1.2" fill="#3b82f6"><title>Measurement — W5: 30 (25–35)</title></ellipse><ellipse id="svgraph-45-s0-pt-4" cx="69.3333" cy="34.3229" rx="1.6" ry="4" fill="transparent" tabindex="0"><title>Measurement — W5: 30 (25–35)</title></ellipse></g><g class="series-0"><ellipse cx="83.6667" cy="40.7292" rx="0.48" ry="1.2" fill="#3b82f6"><title>Measurement — W6: 27 (22–32)</title></ellipse><ellipse id="svgraph-45-s0-pt-5" cx="83.6667" cy="40.7292" rx="1.6" ry="4" fill="transparent" tabindex="0"><title>Measurement — W6: 27 (22–32)</title></ellipse></g><g class="series-0"><ellipse cx="98" cy="23.6458" rx="0.48" ry="1.2" fill="#3b82f6"><title>Measurement — W7: 35 (29–41)</title></ellipse><ellipse id="svgraph-45-s0-pt-6" cx="98" cy="23.6458" rx="1.6" ry="4" fill="transparent" tabindex="0"><title>Measurement — W7: 35 (29–41)</title></ellipse></g></svg><text x="0" y="246.5002" font-family="inherit" font-size="12" fill="#374151" text-anchor="start" dominant-baseline="middle">10</text><text x="0" y="178.1667" font-family="inherit" font-size="12" fill="#374151" text-anchor="start" dominant-baseline="middle">20</text><text x="0" y="109.8333" font-family="inherit" font-size="12" fill="#374151" text-anchor="start" dominant-baseline="middle">30</text><text x="0" y="41.5002" font-family="inherit" font-size="12" fill="#374151" text-anchor="start" dominant-baseline="middle">40</text><text x="96" y="320" font-family="inherit" font-size="12" fill="#374151" text-anchor="middle" dominant-baseline="text-after-edge">W1</text><text x="210.6664" y="320" font-family="inherit" font-size="12" fill="#374151" text-anchor="middle" dominant-baseline="text-after-edge">W2</text><text x="325.3336" y="320" font-family="inherit" font-size="12" fill="#374151" text-anchor="middle" dominant-baseline="text-after-edge">W3</text><text x="440" y="320" font-family="inherit" font-size="12" fill="#374151" text-anchor="middle" dominant-baseline="text-after-edge">W4</text><text x="554.6664" y="320" font-family="inherit" font-size="12" fill="#374151" text-anchor="middle" dominant-baseline="text-after-edge">W5</text><text x="669.3336" y="320" font-family="inherit" font-size="12" fill="#374151" text-anchor="middle" dominant-baseline="text-after-edge">W6</text><text x="784" y="320" font-family="inherit" font-size="12" fill="#374151" text-anchor="middle" dominant-baseline="text-after-edge">W7</text></svg>