<?xml version="1.0" encoding="UTF-8"?>
<svg xmlns="http://www.w3.org/2000/svg" width="800" height="320" viewBox="0 0 800 320"><svg x="0" y="0" width="800" height="320" viewBox="0 0 100 100" preserveAspectRatio="none"><line x1="12" x2="88" y1="85.966" y2="85.966" stroke="#e5e7eb" stroke-width="1" vector-effect="non-scaling-stroke"/><line x1="12" x2="88" y1="68.9677" y2="68.9677" stroke="#e5e7eb" stroke-width="1" vector-effect="non-scaling-stroke"/><line x1="12" x2="88" y1="51.9693" y2="51.9693" stroke="#e5e7eb" stroke-width="1" vector-effect="non-scaling-stroke"/><line x1="12" x2="88" y1="34.971" y2="34.971" stroke="#e5e7eb" stroke-width="1" vector-effect="non-scaling-stroke"/><line x1="12" x2="88" y1="17.9726" y2="17.9726" stroke="#e5e7eb" stroke-width="1" vector-effect="non-scaling-stroke"/><line x1="12" x2="88" y1="0.9743" y2="0.9743" stroke="#e5e7eb" stroke-width="1" vector-effect="non-scaling-stroke"/><line x1="12" x2="12" y1="4" y2="86" stroke="#9ca3af" stroke-width="1" vector-effect="non-scaling-stroke"/><line x1="12" x2="88" y1="86" y2="86" stroke="#9ca3af" stroke-width="1" vector-effect="non-scaling-stroke"/><line x1="88" x2="88" y1="4" y2="86" stroke="#ef4444" stroke-width="1" vector-effect="non-scaling-stroke"/><path class="series-0" d="M12,79.1667 C18.65,71.4324 17.7,68.1347 31,57.0688 C44.3,46.0029 36.7,57.4258 50,47.5498 C63.3,37.6737 55.7,41.7023 69,28.8516 C82.3,16.0008 81.35,17.1397 88,10.8333" fill="none" stroke="#3b82f6" stroke-width="2" stroke-linecap="round" stroke-linejoin="round" vector-effect="non-scaling-stroke"/><g class="series-0"><ellipse cx="12" cy="79.1667" rx="0.48" ry="1.2" fill="#3b82f6"><title>Jan: 12,000</title></ellipse><ellipse id="svgraph-33-s0-pt-0" cx="12" cy="79.1667" rx="1.6" ry="4" fill="transparent" tabindex="0"><title>Jan: 12,000</title></ellipse></g><g class="series-0"><ellipse cx="31" cy="57.0688" rx="0.48" ry="1.2" fill="#3b82f6"><title>Feb: 18,500</title></ellipse><ellipse id="svgraph-33-s0-pt-1" cx="31" cy="57.0688" rx="1.6" ry="4" fill="transparent" tabindex="0"><title>Feb: 18,500</title></ellipse></g><g class="series-0"><ellipse cx="50" cy="47.5498" rx="0.48" ry="1.2" fill="#3b82f6"><title>Mar: 21,300</title></ellipse><ellipse id="svgraph-33-s0-pt-2" cx="50" cy="47.5498" rx="1.6" ry="4" fill="transparent" tabindex="0"><title>Mar: 21,300</title></ellipse></g><g class="series-0"><ellipse cx="69" cy="28.8516" rx="0.48" ry="1.2" fill="#3b82f6"><title>Apr: 26,800</title></ellipse><ellipse id="svgraph-33-s0-pt-3" cx="69" cy="28.8516" rx="1.6" ry="4" fill="transparent" tabindex="0"><title>Apr: 26,800</title></ellipse></g><g class="series-0"><ellipse cx="88" cy="10.8333" rx="0.48" ry="1.2" fill="#3b82f6"><title>May: 32,100</title></ellipse><ellipse id="svgraph-33-s0-pt-4" cx="88" cy="10.8333" rx="1.6" ry="4" fill="transparent" tabindex="0"><title>May: 32,100</title></ellipse></g><path class="series-1" d="M12,79.1667 C18.65,73.5392 17.7,72.9363 31,63.0882 C44.3,53.2402 36.7,62.2843 50,51.0294 C63.3,39.7745 55.7,45 69,30.9314 C82.3,16.8627 81.35,17.8676 88,10.8333" fill="none" stroke="#ef4444" stroke-width="2" stroke-linecap="round" stroke-linejoin="round" vector-effect="non-scaling-stroke"/><g class="series-1"><ellipse cx="12" cy="79.1667" rx="0.48" ry="1.2" fill="#ef4444"><title>Conversion % — Jan: 1.4</title></ellipse><ellipse id="svgraph-33-s1-pt-0" cx="12" cy="79.1667" rx="1.6" ry="4" fill="transparent" tabindex="0"><title>Conversion % — Jan: 1.4</title></ellipse></g><g class="series-1"><ellipse cx="31" cy="63.0882" rx="0.48" ry="1.2" fill="#ef4444"><title>Conversion % — Feb: 1.8</title></ellipse><ellipse id="svgraph-33-s1-pt-1" cx="31" cy="63.0882" rx="1.6" ry="4" fill="transparent" tabindex="0"><title>Conversion % — Feb: 1.8</title></ellipse></g><g class="series-1"><ellipse cx="50" cy="51.0294" rx="0.48" ry="1.2" fill="#ef4444"><title>Conversion % — Mar: 2.1</title></ellipse><ellipse id="svgraph-33-s1-pt-2" cx="50" cy="51.0294" rx="1.6" ry="4" fill="transparent" tabindex="0"><title>Conversion % — Mar: 2.1</title></ellipse></g><g class="series-1"><ellipse cx="69" cy="30.9314" rx="0.48" ry="1.2" fill="#ef4444"><title>Conversion % — Apr: 2.6</title></ellipse><ellipse id="svgraph-33-s1-pt-3" cx="69" cy="30.9314" rx="1.6" ry="4" fill="transparent" tabindex="0"><title>Conversion % — Apr: 2.6</title></ellipse></g><g class="series-1"><ellipse cx="88" cy="10.8333" rx="0.48" ry="1.2" fill="#ef4444"><title>Conversion % — May: 3.1</title></ellipse><ellipse id="svgraph-33-s1-pt-4" cx="88" cy="10.8333" rx="1.6" ry="4" fill="transparent" tabindex="0"><title>Conversion % — May: 3.1</title></ellipse></g></svg><text x="0" y="275.0912" font-family="inherit" font-size="12" fill="#374151" text-anchor="start" dominant-baseline="middle">10,000</text><text x="0" y="220.6966" font-family="inherit" font-size="12" fill="#374151" text-anchor="start" dominant-baseline="middle">15,000</text><text x="0" y="166.3018" font-family="inherit" font-size="12" fill="#374151" text-anchor="start" dominant-baseline="middle">20,000</text><text x="0" y="111.9072" font-family="inherit" font-size="12" fill="#374151" text-anchor="start" dominant-baseline="middle">25,000</text><text x="0" y="57.5123" font-family="inherit" font-size="12" fill="#374151" text-anchor="start" dominant-baseline="middle">30,000</text><text x="0" y="3.1178" font-family="inherit" font-size="12" fill="#374151" text-anchor="start" dominant-baseline="middle">35,000</text><text x="704" y="304.7843" font-family="inherit" font-size="12" fill="#ef4444" text-anchor="start" dominant-baseline="middle">1</text><text x="704" y="240.4707" font-family="inherit" font-size="12" fill="#ef4444" text-anchor="start" dominant-baseline="middle">1.5</text><text x="704" y="176.1568" font-family="inherit" font-size="12" fill="#ef4444" text-anchor="start" dominant-baseline="middle">2</text><text x="704" y="111.8432" font-family="inherit" font-size="12" fill="#ef4444" text-anchor="start" dominant-baseline="middle">2.5</text><text x="704" y="47.5293" font-family="inherit" font-size="12" fill="#ef4444" text-anchor="start" dominant-baseline="middle">3</text><text x="704" y="0" font-family="inherit" font-size="12" fill="#ef4444" text-anchor="start" dominant-baseline="middle">3.5</text><text x="96" y="320" font-family="inherit" font-size="12" fill="#374151" text-anchor="middle" dominant-baseline="text-after-edge">Jan</text><text x="248" y="320" font-family="inherit" font-size="12" fill="#374151" text-anchor="middle" dominant-baseline="text-after-edge">Feb</text><text x="400" y="320" font-family="inherit" font-size="12" fill="#374151" text-anchor="middle" dominant-baseline="text-after-edge">Mar</text><text x="552" y="320" font-family="inherit" font-size="12" fill="#374151" text-anchor="middle" dominant-baseline="text-after-edge">Apr</text><text x="704" y="320" font-family="inherit" font-size="12" fill="#374151" text-anchor="middle" dominant-baseline="text-after-edge">May</text></svg>