<?xml version="1.0" encoding="UTF-8"?>
<svg xmlns="http://www.w3.org/2000/svg" width="800" height="320" viewBox="0 0 800 320"><svg x="0" y="0" width="800" height="320" viewBox="0 0 100 100" preserveAspectRatio="none"><title id="svgraph-39-title">Line chart</title><desc id="svgraph-39-desc">Line chart with 1 series of 8 points. Range: 22 to 71.</desc><line x1="12" x2="98" y1="81.9558" y2="81.9558" stroke="#e5e7eb" stroke-width="1" vector-effect="non-scaling-stroke"/><line x1="12" x2="98" y1="68.0102" y2="68.0102" stroke="#e5e7eb" stroke-width="1" vector-effect="non-scaling-stroke"/><line x1="12" x2="98" y1="54.0646" y2="54.0646" stroke="#e5e7eb" stroke-width="1" vector-effect="non-scaling-stroke"/><line x1="12" x2="98" y1="40.119" y2="40.119" stroke="#e5e7eb" stroke-width="1" vector-effect="non-scaling-stroke"/><line x1="12" x2="98" y1="26.1735" y2="26.1735" stroke="#e5e7eb" stroke-width="1" vector-effect="non-scaling-stroke"/><line x1="12" x2="98" y1="12.2279" y2="12.2279" stroke="#e5e7eb" stroke-width="1" vector-effect="non-scaling-stroke"/><line x1="12" x2="98" y1="-1.7177" y2="-1.7177" stroke="#e5e7eb" stroke-width="1" vector-effect="non-scaling-stroke"/><line x1="12" x2="12" y1="4" y2="86" stroke="#9ca3af" stroke-width="1" vector-effect="non-scaling-stroke"/><line x1="12" x2="98" y1="86" y2="86" stroke="#9ca3af" stroke-width="1" vector-effect="non-scaling-stroke"/><path class="series-0" d="M12,79.1667 C16.3,71.3571 15.6857,56.8537 24.2857,56.8537 C32.8857,56.8537 27.9714,66.6156 36.5714,66.6156 C45.1714,66.6156 40.2571,55.0408 48.8571,44.3027 C57.4571,33.5646 52.5429,35.9354 61.1429,35.9354 C69.7429,35.9354 64.8286,41.5136 73.4286,41.5136 C82.0286,41.5136 77.1143,31.3333 85.7143,20.5952 C94.3143,9.8571 93.7,14.25 98,10.8333 L98,86 L12,86 Z" fill="#3b82f6" fill-opacity="0.18" stroke="none"/><path class="series-0" d="M12,79.1667 C16.3,71.3571 15.6857,56.8537 24.2857,56.8537 C32.8857,56.8537 27.9714,66.6156 36.5714,66.6156 C45.1714,66.6156 40.2571,55.0408 48.8571,44.3027 C57.4571,33.5646 52.5429,35.9354 61.1429,35.9354 C69.7429,35.9354 64.8286,41.5136 73.4286,41.5136 C82.0286,41.5136 77.1143,31.3333 85.7143,20.5952 C94.3143,9.8571 93.7,14.25 98,10.8333" fill="none" stroke="#3b82f6" stroke-width="2" stroke-linecap="round" stroke-linejoin="round" vector-effect="non-scaling-stroke"/></svg></svg>