<?xml version="1.0" encoding="UTF-8"?>
<svg xmlns="http://www.w3.org/2000/svg" width="800" height="320" viewBox="0 0 800 320"><svg x="0" y="0" width="800" height="320" viewBox="0 0 100 100" preserveAspectRatio="none"><title id="svgraph-44-title">Line chart</title><desc id="svgraph-44-desc">Line chart with 1 series of 7 points. Range: 1 to 1,000,000.</desc><line x1="12" x2="98" y1="86" y2="86" stroke="#e5e7eb" stroke-width="1" vector-effect="non-scaling-stroke"/><line x1="12" x2="98" y1="72.3333" y2="72.3333" stroke="#e5e7eb" stroke-width="1" vector-effect="non-scaling-stroke"/><line x1="12" x2="98" y1="58.6667" y2="58.6667" stroke="#e5e7eb" stroke-width="1" vector-effect="non-scaling-stroke"/><line x1="12" x2="98" y1="45" y2="45" stroke="#e5e7eb" stroke-width="1" vector-effect="non-scaling-stroke"/><line x1="12" x2="98" y1="31.3333" y2="31.3333" stroke="#e5e7eb" stroke-width="1" vector-effect="non-scaling-stroke"/><line x1="12" x2="98" y1="17.6667" y2="17.6667" stroke="#e5e7eb" stroke-width="1" vector-effect="non-scaling-stroke"/><line x1="12" x2="98" y1="4" y2="4" stroke="#e5e7eb" stroke-width="1" vector-effect="non-scaling-stroke"/><line x1="12" x2="12" y1="4" y2="86" stroke="#9ca3af" stroke-width="1" vector-effect="non-scaling-stroke"/><line x1="12" x2="98" y1="86" y2="86" stroke="#9ca3af" stroke-width="1" vector-effect="non-scaling-stroke"/><path class="series-0" d="M12,86 L26.3333,72.3333 L40.6667,58.6667 L55,45 L69.3333,31.3333 L83.6667,17.6667 L98,4" fill="none" stroke="#8b5cf6" stroke-width="2" stroke-linecap="round" stroke-linejoin="round" vector-effect="non-scaling-stroke"/><g class="series-0"><ellipse cx="12" cy="86" rx="0.48" ry="1.2" fill="#8b5cf6"><title>1B: 1</title></ellipse><ellipse id="svgraph-44-s0-pt-0" cx="12" cy="86" rx="1.6" ry="4" fill="transparent" tabindex="0"><title>1B: 1</title></ellipse></g><g class="series-0"><ellipse cx="26.3333" cy="72.3333" rx="0.48" ry="1.2" fill="#8b5cf6"><title>10B: 10</title></ellipse><ellipse id="svgraph-44-s0-pt-1" cx="26.3333" cy="72.3333" rx="1.6" ry="4" fill="transparent" tabindex="0"><title>10B: 10</title></ellipse></g><g class="series-0"><ellipse cx="40.6667" cy="58.6667" rx="0.48" ry="1.2" fill="#8b5cf6"><title>100B: 100</title></ellipse><ellipse id="svgraph-44-s0-pt-2" cx="40.6667" cy="58.6667" rx="1.6" ry="4" fill="transparent" tabindex="0"><title>100B: 100</title></ellipse></g><g class="series-0"><ellipse cx="55" cy="45" rx="0.48" ry="1.2" fill="#8b5cf6"><title>1KB: 1,000</title></ellipse><ellipse id="svgraph-44-s0-pt-3" cx="55" cy="45" rx="1.6" ry="4" fill="transparent" tabindex="0"><title>1KB: 1,000</title></ellipse></g><g class="series-0"><ellipse cx="69.3333" cy="31.3333" rx="0.48" ry="1.2" fill="#8b5cf6"><title>10KB: 10,000</title></ellipse><ellipse id="svgraph-44-s0-pt-4" cx="69.3333" cy="31.3333" rx="1.6" ry="4" fill="transparent" tabindex="0"><title>10KB: 10,000</title></ellipse></g><g class="series-0"><ellipse cx="83.6667" cy="17.6667" rx="0.48" ry="1.2" fill="#8b5cf6"><title>100KB: 100,000</title></ellipse><ellipse id="svgraph-44-s0-pt-5" cx="83.6667" cy="17.6667" rx="1.6" ry="4" fill="transparent" tabindex="0"><title>100KB: 100,000</title></ellipse></g><g class="series-0"><ellipse cx="98" cy="4" rx="0.48" ry="1.2" fill="#8b5cf6"><title>1MB: 1,000,000</title></ellipse><ellipse id="svgraph-44-s0-pt-6" cx="98" cy="4" rx="1.6" ry="4" fill="transparent" tabindex="0"><title>1MB: 1,000,000</title></ellipse></g></svg><text x="0" y="275.2" font-family="inherit" font-size="12" fill="#374151" text-anchor="start" dominant-baseline="middle">1</text><text x="0" y="231.4666" font-family="inherit" font-size="12" fill="#374151" text-anchor="start" dominant-baseline="middle">10</text><text x="0" y="187.7334" font-family="inherit" font-size="12" fill="#374151" text-anchor="start" dominant-baseline="middle">100</text><text x="0" y="144" font-family="inherit" font-size="12" fill="#374151" text-anchor="start" dominant-baseline="middle">1,000</text><text x="0" y="100.2666" font-family="inherit" font-size="12" fill="#374151" text-anchor="start" dominant-baseline="middle">10,000</text><text x="0" y="56.5334" font-family="inherit" font-size="12" fill="#374151" text-anchor="start" dominant-baseline="middle">100,000</text><text x="0" y="12.8" font-family="inherit" font-size="12" fill="#374151" text-anchor="start" dominant-baseline="middle">1,000,000</text><text x="96" y="320" font-family="inherit" font-size="12" fill="#374151" text-anchor="middle" dominant-baseline="text-after-edge">1B</text><text x="210.6664" y="320" font-family="inherit" font-size="12" fill="#374151" text-anchor="middle" dominant-baseline="text-after-edge">10B</text><text x="325.3336" y="320" font-family="inherit" font-size="12" fill="#374151" text-anchor="middle" dominant-baseline="text-after-edge">100B</text><text x="440" y="320" font-family="inherit" font-size="12" fill="#374151" text-anchor="middle" dominant-baseline="text-after-edge">1KB</text><text x="554.6664" y="320" font-family="inherit" font-size="12" fill="#374151" text-anchor="middle" dominant-baseline="text-after-edge">10KB</text><text x="669.3336" y="320" font-family="inherit" font-size="12" fill="#374151" text-anchor="middle" dominant-baseline="text-after-edge">100KB</text><text x="784" y="320" font-family="inherit" font-size="12" fill="#374151" text-anchor="middle" dominant-baseline="text-after-edge">1MB</text></svg>