<?xml version="1.0" encoding="UTF-8"?>
<svg xmlns="http://www.w3.org/2000/svg" width="800" height="320" viewBox="0 0 800 320"><svg x="0" y="0" width="800" height="320" viewBox="0 0 100 100" preserveAspectRatio="none"><line x1="12" x2="98" y1="88.0797" y2="88.0797" stroke="#e5e7eb" stroke-width="1" vector-effect="non-scaling-stroke"/><line x1="12" x2="98" y1="73.2246" y2="73.2246" stroke="#e5e7eb" stroke-width="1" vector-effect="non-scaling-stroke"/><line x1="12" x2="98" y1="58.3696" y2="58.3696" stroke="#e5e7eb" stroke-width="1" vector-effect="non-scaling-stroke"/><line x1="12" x2="98" y1="43.5145" y2="43.5145" stroke="#e5e7eb" stroke-width="1" vector-effect="non-scaling-stroke"/><line x1="12" x2="98" y1="28.6594" y2="28.6594" stroke="#e5e7eb" stroke-width="1" vector-effect="non-scaling-stroke"/><line x1="12" x2="98" y1="13.8043" y2="13.8043" stroke="#e5e7eb" stroke-width="1" vector-effect="non-scaling-stroke"/><line x1="12" x2="98" y1="-1.0507" y2="-1.0507" stroke="#e5e7eb" stroke-width="1" vector-effect="non-scaling-stroke"/><line x1="12" x2="12" y1="4" y2="86" stroke="#9ca3af" stroke-width="1" vector-effect="non-scaling-stroke"/><line x1="12" x2="98" y1="86" y2="86" stroke="#9ca3af" stroke-width="1" vector-effect="non-scaling-stroke"/><line class="svgraph-crosshair" data-x="0" x1="12" x2="12" y1="4" y2="86" stroke="#9ca3af" stroke-width="1" stroke-dasharray="2,2" vector-effect="non-scaling-stroke"/><line class="svgraph-crosshair" data-x="1" x1="26.3333" x2="26.3333" y1="4" y2="86" stroke="#9ca3af" stroke-width="1" stroke-dasharray="2,2" vector-effect="non-scaling-stroke"/><line class="svgraph-crosshair" data-x="2" x1="40.6667" x2="40.6667" y1="4" y2="86" stroke="#9ca3af" stroke-width="1" stroke-dasharray="2,2" vector-effect="non-scaling-stroke"/><line class="svgraph-crosshair" data-x="3" x1="55" x2="55" y1="4" y2="86" stroke="#9ca3af" stroke-width="1" stroke-dasharray="2,2" vector-effect="non-scaling-stroke"/><line class="svgraph-crosshair" data-x="4" x1="69.3333" x2="69.3333" y1="4" y2="86" stroke="#9ca3af" stroke-width="1" stroke-dasharray="2,2" vector-effect="non-scaling-stroke"/><line class="svgraph-crosshair" data-x="5" x1="83.6667" x2="83.6667" y1="4" y2="86" stroke="#9ca3af" stroke-width="1" stroke-dasharray="2,2" vector-effect="non-scaling-stroke"/><line class="svgraph-crosshair" data-x="6" x1="98" x2="98" y1="4" y2="86" stroke="#9ca3af" stroke-width="1" stroke-dasharray="2,2" vector-effect="non-scaling-stroke"/><path class="series-0" d="M12,70.2536 L26.3333,47.971 L40.6667,61.3406 L55,27.1739 L69.3333,39.058 L83.6667,10.8333 L98,31.6304" fill="none" stroke="#3b82f6" stroke-width="2" stroke-linecap="round" stroke-linejoin="round" vector-effect="non-scaling-stroke"/><g class="series-0" data-x="0"><ellipse cx="12" cy="70.2536" rx="0.48" ry="1.2" fill="#3b82f6"><title>Mon: 12</title></ellipse><ellipse id="svgraph-33-s0-pt-0" cx="12" cy="70.2536" rx="1.6" ry="4" fill="transparent" tabindex="0"><title>Mon: 12</title></ellipse></g><g class="series-0" data-x="1"><ellipse cx="26.3333" cy="47.971" rx="0.48" ry="1.2" fill="#3b82f6"><title>Tue: 27</title></ellipse><ellipse id="svgraph-33-s0-pt-1" cx="26.3333" cy="47.971" rx="1.6" ry="4" fill="transparent" tabindex="0"><title>Tue: 27</title></ellipse></g><g class="series-0" data-x="2"><ellipse cx="40.6667" cy="61.3406" rx="0.48" ry="1.2" fill="#3b82f6"><title>Wed: 18</title></ellipse><ellipse id="svgraph-33-s0-pt-2" cx="40.6667" cy="61.3406" rx="1.6" ry="4" fill="transparent" tabindex="0"><title>Wed: 18</title></ellipse></g><g class="series-0" data-x="3"><ellipse cx="55" cy="27.1739" rx="0.48" ry="1.2" fill="#3b82f6"><title>Thu: 41</title></ellipse><ellipse id="svgraph-33-s0-pt-3" cx="55" cy="27.1739" rx="1.6" ry="4" fill="transparent" tabindex="0"><title>Thu: 41</title></ellipse></g><g class="series-0" data-x="4"><ellipse cx="69.3333" cy="39.058" rx="0.48" ry="1.2" fill="#3b82f6"><title>Fri: 33</title></ellipse><ellipse id="svgraph-33-s0-pt-4" cx="69.3333" cy="39.058" rx="1.6" ry="4" fill="transparent" tabindex="0"><title>Fri: 33</title></ellipse></g><g class="series-0" data-x="5"><ellipse cx="83.6667" cy="10.8333" rx="0.48" ry="1.2" fill="#3b82f6"><title>Sat: 52</title></ellipse><ellipse id="svgraph-33-s0-pt-5" cx="83.6667" cy="10.8333" rx="1.6" ry="4" fill="transparent" tabindex="0"><title>Sat: 52</title></ellipse></g><g class="series-0" data-x="6"><ellipse cx="98" cy="31.6304" rx="0.48" ry="1.2" fill="#3b82f6"><title>Sun: 38</title></ellipse><ellipse id="svgraph-33-s0-pt-6" cx="98" cy="31.6304" rx="1.6" ry="4" fill="transparent" tabindex="0"><title>Sun: 38</title></ellipse></g><path class="series-1" d="M12,79.1667 L26.3333,67.2826 L40.6667,74.7101 L55,55.3986 L69.3333,61.3406 L83.6667,43.5145 L98,56.8841" fill="none" stroke="#ef4444" stroke-width="2" stroke-linecap="round" stroke-linejoin="round" vector-effect="non-scaling-stroke"/><g class="series-1" data-x="0"><ellipse cx="12" cy="79.1667" rx="0.48" ry="1.2" fill="#ef4444"><title>Costs — Mon: 6</title></ellipse><ellipse id="svgraph-33-s1-pt-0" cx="12" cy="79.1667" rx="1.6" ry="4" fill="transparent" tabindex="0"><title>Costs — Mon: 6</title></ellipse></g><g class="series-1" data-x="1"><ellipse cx="26.3333" cy="67.2826" rx="0.48" ry="1.2" fill="#ef4444"><title>Costs — Tue: 14</title></ellipse><ellipse id="svgraph-33-s1-pt-1" cx="26.3333" cy="67.2826" rx="1.6" ry="4" fill="transparent" tabindex="0"><title>Costs — Tue: 14</title></ellipse></g><g class="series-1" data-x="2"><ellipse cx="40.6667" cy="74.7101" rx="0.48" ry="1.2" fill="#ef4444"><title>Costs — Wed: 9</title></ellipse><ellipse id="svgraph-33-s1-pt-2" cx="40.6667" cy="74.7101" rx="1.6" ry="4" fill="transparent" tabindex="0"><title>Costs — Wed: 9</title></ellipse></g><g class="series-1" data-x="3"><ellipse cx="55" cy="55.3986" rx="0.48" ry="1.2" fill="#ef4444"><title>Costs — Thu: 22</title></ellipse><ellipse id="svgraph-33-s1-pt-3" cx="55" cy="55.3986" rx="1.6" ry="4" fill="transparent" tabindex="0"><title>Costs — Thu: 22</title></ellipse></g><g class="series-1" data-x="4"><ellipse cx="69.3333" cy="61.3406" rx="0.48" ry="1.2" fill="#ef4444"><title>Costs — Fri: 18</title></ellipse><ellipse id="svgraph-33-s1-pt-4" cx="69.3333" cy="61.3406" rx="1.6" ry="4" fill="transparent" tabindex="0"><title>Costs — Fri: 18</title></ellipse></g><g class="series-1" data-x="5"><ellipse cx="83.6667" cy="43.5145" rx="0.48" ry="1.2" fill="#ef4444"><title>Costs — Sat: 30</title></ellipse><ellipse id="svgraph-33-s1-pt-5" cx="83.6667" cy="43.5145" rx="1.6" ry="4" fill="transparent" tabindex="0"><title>Costs — Sat: 30</title></ellipse></g><g class="series-1" data-x="6"><ellipse cx="98" cy="56.8841" rx="0.48" ry="1.2" fill="#ef4444"><title>Costs — Sun: 21</title></ellipse><ellipse id="svgraph-33-s1-pt-6" cx="98" cy="56.8841" rx="1.6" ry="4" fill="transparent" tabindex="0"><title>Costs — Sun: 21</title></ellipse></g><rect class="svgraph-x-hit" data-x="0" x="12" y="4" width="7.1667" height="82" fill="transparent"/><rect class="svgraph-x-hit" data-x="1" x="19.1667" y="4" width="14.3333" height="82" fill="transparent"/><rect class="svgraph-x-hit" data-x="2" x="33.5" y="4" width="14.3333" height="82" fill="transparent"/><rect class="svgraph-x-hit" data-x="3" x="47.8333" y="4" width="14.3333" height="82" fill="transparent"/><rect class="svgraph-x-hit" data-x="4" x="62.1667" y="4" width="14.3333" height="82" fill="transparent"/><rect class="svgraph-x-hit" data-x="5" x="76.5" y="4" width="14.3333" height="82" fill="transparent"/><rect class="svgraph-x-hit" data-x="6" x="90.8333" y="4" width="7.1667" height="82" fill="transparent"/></svg><text x="0" y="281.855" font-family="inherit" font-size="12" fill="#374151" text-anchor="start" dominant-baseline="middle">0</text><text x="0" y="234.3187" font-family="inherit" font-size="12" fill="#374151" text-anchor="start" dominant-baseline="middle">10</text><text x="0" y="186.7827" font-family="inherit" font-size="12" fill="#374151" text-anchor="start" dominant-baseline="middle">20</text><text x="0" y="139.2464" font-family="inherit" font-size="12" fill="#374151" text-anchor="start" dominant-baseline="middle">30</text><text x="0" y="91.7101" font-family="inherit" font-size="12" fill="#374151" text-anchor="start" dominant-baseline="middle">40</text><text x="0" y="44.1738" font-family="inherit" font-size="12" fill="#374151" text-anchor="start" dominant-baseline="middle">50</text><text x="0" y="0" font-family="inherit" font-size="12" fill="#374151" text-anchor="start" dominant-baseline="middle">60</text><text x="96" y="320" font-family="inherit" font-size="12" fill="#374151" text-anchor="middle" dominant-baseline="text-after-edge">Mon</text><text x="210.6664" y="320" font-family="inherit" font-size="12" fill="#374151" text-anchor="middle" dominant-baseline="text-after-edge">Tue</text><text x="325.3336" y="320" font-family="inherit" font-size="12" fill="#374151" text-anchor="middle" dominant-baseline="text-after-edge">Wed</text><text x="440" y="320" font-family="inherit" font-size="12" fill="#374151" text-anchor="middle" dominant-baseline="text-after-edge">Thu</text><text x="554.6664" y="320" font-family="inherit" font-size="12" fill="#374151" text-anchor="middle" dominant-baseline="text-after-edge">Fri</text><text x="669.3336" y="320" font-family="inherit" font-size="12" fill="#374151" text-anchor="middle" dominant-baseline="text-after-edge">Sat</text><text x="784" y="320" font-family="inherit" font-size="12" fill="#374151" text-anchor="middle" dominant-baseline="text-after-edge">Sun</text></svg>