<?xml version="1.0" encoding="UTF-8"?>
<svg xmlns="http://www.w3.org/2000/svg" width="800" height="320" viewBox="0 0 800 320"><svg x="0" y="0" width="800" height="320" viewBox="0 0 100 100" preserveAspectRatio="none"><title id="svgraph-43-title">Line chart</title><desc id="svgraph-43-desc">Line chart with 1 series of 7 points. Range: 12 to 56.</desc><line x1="12" x2="98" y1="89.8438" y2="89.8438" stroke="#e5e7eb" stroke-width="1" vector-effect="non-scaling-stroke"/><line x1="12" x2="98" y1="68.4896" y2="68.4896" stroke="#e5e7eb" stroke-width="1" vector-effect="non-scaling-stroke"/><line x1="12" x2="98" y1="47.1354" y2="47.1354" stroke="#e5e7eb" stroke-width="1" vector-effect="non-scaling-stroke"/><line x1="12" x2="98" y1="25.7813" y2="25.7813" stroke="#e5e7eb" stroke-width="1" vector-effect="non-scaling-stroke"/><line x1="12" x2="98" y1="4.4271" y2="4.4271" stroke="#e5e7eb" stroke-width="1" vector-effect="non-scaling-stroke"/><line x1="12" x2="12" y1="4" y2="86" stroke="#9ca3af" stroke-width="1" vector-effect="non-scaling-stroke"/><line x1="12" x2="98" y1="86" y2="86" stroke="#9ca3af" stroke-width="1" vector-effect="non-scaling-stroke"/><path class="svgraph-band series-0" d="M12,79.1667 C17.0167,77.2982 16.3,77.5651 26.3333,73.8281 C36.3667,70.0911 30.6333,72.2266 40.6667,68.4896 C50.7,64.7526 44.9667,66.888 55,63.151 C65.0333,59.4141 59.3,61.1758 69.3333,57.8125 C79.3667,54.4492 73.6333,56.5313 83.6667,53.5417 C93.7,50.5521 92.9833,50.7656 98,49.2708 L98,10.8333 C92.9833,15.3177 93.7,15.4245 83.6667,23.6458 C73.6333,31.8672 79.3667,26.4753 69.3333,34.3229 C59.3,42.1706 65.0333,38.5938 55,46.0677 C44.9667,53.5417 50.7,48.9505 40.6667,55.6771 C30.6333,62.4036 36.3667,58.5599 26.3333,65.2865 C16.3,72.013 17.0167,71.5326 12,74.8958 Z" fill="#8b5cf6" fill-opacity="0.18" stroke="none"/><path class="series-0" d="M12,77.0313 C17.0167,74.4154 16.3,74.7891 26.3333,69.5573 C36.3667,64.3255 30.6333,67.3151 40.6667,62.0833 C50.7,56.8516 44.9667,60.2148 55,54.6094 C65.0333,49.0039 59.3,51.6732 69.3333,46.0677 C79.3667,40.4622 73.6333,44.1992 83.6667,38.5938 C93.7,32.9883 92.9833,33.0417 98,30.0521" fill="none" stroke="#8b5cf6" stroke-width="2" stroke-linecap="round" stroke-linejoin="round" vector-effect="non-scaling-stroke"/><g class="series-0"><ellipse cx="12" cy="77.0313" rx="0.48" ry="1.2" fill="#8b5cf6"><title>Forecast — Jan: 12 (10–14)</title></ellipse><ellipse id="svgraph-43-s0-pt-0" cx="12" cy="77.0313" rx="1.6" ry="4" fill="transparent" tabindex="0"><title>Forecast — Jan: 12 (10–14)</title></ellipse></g><g class="series-0"><ellipse cx="26.3333" cy="69.5573" rx="0.48" ry="1.2" fill="#8b5cf6"><title>Forecast — Feb: 19 (15–23)</title></ellipse><ellipse id="svgraph-43-s0-pt-1" cx="26.3333" cy="69.5573" rx="1.6" ry="4" fill="transparent" tabindex="0"><title>Forecast — Feb: 19 (15–23)</title></ellipse></g><g class="series-0"><ellipse cx="40.6667" cy="62.0833" rx="0.48" ry="1.2" fill="#8b5cf6"><title>Forecast — Mar: 26 (20–32)</title></ellipse><ellipse id="svgraph-43-s0-pt-2" cx="40.6667" cy="62.0833" rx="1.6" ry="4" fill="transparent" tabindex="0"><title>Forecast — Mar: 26 (20–32)</title></ellipse></g><g class="series-0"><ellipse cx="55" cy="54.6094" rx="0.48" ry="1.2" fill="#8b5cf6"><title>Forecast — Apr: 33 (25–41)</title></ellipse><ellipse id="svgraph-43-s0-pt-3" cx="55" cy="54.6094" rx="1.6" ry="4" fill="transparent" tabindex="0"><title>Forecast — Apr: 33 (25–41)</title></ellipse></g><g class="series-0"><ellipse cx="69.3333" cy="46.0677" rx="0.48" ry="1.2" fill="#8b5cf6"><title>Forecast — May: 41 (30–52)</title></ellipse><ellipse id="svgraph-43-s0-pt-4" cx="69.3333" cy="46.0677" rx="1.6" ry="4" fill="transparent" tabindex="0"><title>Forecast — May: 41 (30–52)</title></ellipse></g><g class="series-0"><ellipse cx="83.6667" cy="38.5938" rx="0.48" ry="1.2" fill="#8b5cf6"><title>Forecast — Jun: 48 (34–62)</title></ellipse><ellipse id="svgraph-43-s0-pt-5" cx="83.6667" cy="38.5938" rx="1.6" ry="4" fill="transparent" tabindex="0"><title>Forecast — Jun: 48 (34–62)</title></ellipse></g><g class="series-0"><ellipse cx="98" cy="30.0521" rx="0.48" ry="1.2" fill="#8b5cf6"><title>Forecast — Jul: 56 (38–74)</title></ellipse><ellipse id="svgraph-43-s0-pt-6" cx="98" cy="30.0521" rx="1.6" ry="4" fill="transparent" tabindex="0"><title>Forecast — Jul: 56 (38–74)</title></ellipse></g></svg><text x="0" y="287.5002" font-family="inherit" font-size="12" fill="#374151" text-anchor="start" dominant-baseline="middle">0</text><text x="0" y="219.1667" font-family="inherit" font-size="12" fill="#374151" text-anchor="start" dominant-baseline="middle">20</text><text x="0" y="150.8333" font-family="inherit" font-size="12" fill="#374151" text-anchor="start" dominant-baseline="middle">40</text><text x="0" y="82.5002" font-family="inherit" font-size="12" fill="#374151" text-anchor="start" dominant-baseline="middle">60</text><text x="0" y="14.1667" font-family="inherit" font-size="12" fill="#374151" text-anchor="start" dominant-baseline="middle">80</text><text x="96" y="320" font-family="inherit" font-size="12" fill="#374151" text-anchor="middle" dominant-baseline="text-after-edge">Jan</text><text x="210.6664" y="320" font-family="inherit" font-size="12" fill="#374151" text-anchor="middle" dominant-baseline="text-after-edge">Feb</text><text x="325.3336" y="320" font-family="inherit" font-size="12" fill="#374151" text-anchor="middle" dominant-baseline="text-after-edge">Mar</text><text x="440" y="320" font-family="inherit" font-size="12" fill="#374151" text-anchor="middle" dominant-baseline="text-after-edge">Apr</text><text x="554.6664" y="320" font-family="inherit" font-size="12" fill="#374151" text-anchor="middle" dominant-baseline="text-after-edge">May</text><text x="669.3336" y="320" font-family="inherit" font-size="12" fill="#374151" text-anchor="middle" dominant-baseline="text-after-edge">Jun</text><text x="784" y="320" font-family="inherit" font-size="12" fill="#374151" text-anchor="middle" dominant-baseline="text-after-edge">Jul</text></svg>