<?xml version="1.0" encoding="UTF-8"?>
<svg xmlns="http://www.w3.org/2000/svg" width="800" height="320" viewBox="0 0 800 320"><svg x="0" y="0" width="800" height="320" viewBox="0 0 100 100" preserveAspectRatio="none"><title id="svgraph-34-title">Line chart</title><desc id="svgraph-34-desc">Line chart with 1 series of 6 points. Range: 120 to 224.</desc><line x1="12" x2="98" y1="92.3077" y2="92.3077" stroke="#e5e7eb" stroke-width="1" vector-effect="non-scaling-stroke"/><line x1="12" x2="98" y1="59.4551" y2="59.4551" stroke="#e5e7eb" stroke-width="1" vector-effect="non-scaling-stroke"/><line x1="12" x2="98" y1="26.6026" y2="26.6026" stroke="#e5e7eb" stroke-width="1" vector-effect="non-scaling-stroke"/><line x1="12" x2="98" y1="-6.25" y2="-6.25" stroke="#e5e7eb" stroke-width="1" vector-effect="non-scaling-stroke"/><line x1="12" x2="12" y1="4" y2="86" stroke="#9ca3af" stroke-width="1" vector-effect="non-scaling-stroke"/><line x1="12" x2="98" y1="86" y2="86" stroke="#9ca3af" stroke-width="1" vector-effect="non-scaling-stroke"/><path class="series-0" d="M12,79.1667 C18.02,73.4175 17.16,62.7404 29.2,62.7404 C41.24,62.7404 34.36,71.2821 46.4,71.2821 C58.44,71.2821 51.56,55.7756 63.6,41.0577 C75.64,26.3397 68.76,39.8093 80.8,29.2308 C92.84,18.6522 91.98,17.2724 98,10.8333 L98,86 L12,86 Z" fill="#8b5cf6" fill-opacity="0.2" stroke="none"/><path class="series-0" d="M12,79.1667 C18.02,73.4175 17.16,62.7404 29.2,62.7404 C41.24,62.7404 34.36,71.2821 46.4,71.2821 C58.44,71.2821 51.56,55.7756 63.6,41.0577 C75.64,26.3397 68.76,39.8093 80.8,29.2308 C92.84,18.6522 91.98,17.2724 98,10.8333" fill="none" stroke="#8b5cf6" stroke-width="2" stroke-linecap="round" stroke-linejoin="round" vector-effect="non-scaling-stroke"/></svg></svg>