<?xml version="1.0" encoding="UTF-8"?>
<svg xmlns="http://www.w3.org/2000/svg" width="800" height="320" viewBox="0 0 800 320"><svg x="0" y="0" width="800" height="320" viewBox="0 0 100 100" preserveAspectRatio="none"><title id="svgraph-9-title">Line chart</title><desc id="svgraph-9-desc">Line chart with 1 series of 6 points. Range: 74 to 213.</desc><line x1="12" x2="98" y1="90.9652" y2="90.9652" stroke="#e5e7eb" stroke-width="1" vector-effect="non-scaling-stroke"/><line x1="12" x2="98" y1="66.3849" y2="66.3849" stroke="#e5e7eb" stroke-width="1" vector-effect="non-scaling-stroke"/><line x1="12" x2="98" y1="41.8046" y2="41.8046" stroke="#e5e7eb" stroke-width="1" vector-effect="non-scaling-stroke"/><line x1="12" x2="98" y1="17.2242" y2="17.2242" stroke="#e5e7eb" stroke-width="1" vector-effect="non-scaling-stroke"/><line x1="12" x2="98" y1="-7.3561" y2="-7.3561" stroke="#e5e7eb" stroke-width="1" vector-effect="non-scaling-stroke"/><line x1="12" x2="12" y1="4" y2="86" stroke="#9ca3af" stroke-width="1" vector-effect="non-scaling-stroke"/><line x1="12" x2="98" y1="86" y2="86" stroke="#9ca3af" stroke-width="1" vector-effect="non-scaling-stroke"/><path class="series-0" d="M12,79.1667 C17.7302,76.217 23.4604,74.1687 29.1906,70.3177 C34.9208,66.4668 40.651,61.4688 46.3812,56.0612 C52.1114,50.6535 57.8415,43.0278 63.5717,37.8717 C69.3176,32.7015 75.0635,29.6028 80.8094,25.0899 C86.5396,20.5894 92.2698,15.5855 98,10.8333 L98,86 L12,86 Z" fill="#10b981" fill-opacity="0.15" stroke="none"/><path class="series-0" d="M12,79.1667 C17.7302,76.217 23.4604,74.1687 29.1906,70.3177 C34.9208,66.4668 40.651,61.4688 46.3812,56.0612 C52.1114,50.6535 57.8415,43.0278 63.5717,37.8717 C69.3176,32.7015 75.0635,29.6028 80.8094,25.0899 C86.5396,20.5894 92.2698,15.5855 98,10.8333" fill="none" stroke="#10b981" stroke-width="2" stroke-linecap="round" stroke-linejoin="round" vector-effect="non-scaling-stroke"/><g class="series-0"><ellipse cx="12" cy="79.1667" rx="0.48" ry="1.2" fill="#10b981"><title>74</title></ellipse><ellipse id="svgraph-9-s0-pt-0" cx="12" cy="79.1667" rx="1.6" ry="4" fill="transparent" tabindex="0"><title>74</title></ellipse></g><g class="series-0"><ellipse cx="29.1906" cy="70.3177" rx="0.48" ry="1.2" fill="#10b981"><title>92</title></ellipse><ellipse id="svgraph-9-s0-pt-1" cx="29.1906" cy="70.3177" rx="1.6" ry="4" fill="transparent" tabindex="0"><title>92</title></ellipse></g><g class="series-0"><ellipse cx="46.3812" cy="56.0612" rx="0.48" ry="1.2" fill="#10b981"><title>121</title></ellipse><ellipse id="svgraph-9-s0-pt-2" cx="46.3812" cy="56.0612" rx="1.6" ry="4" fill="transparent" tabindex="0"><title>121</title></ellipse></g><g class="series-0"><ellipse cx="63.5717" cy="37.8717" rx="0.48" ry="1.2" fill="#10b981"><title>158</title></ellipse><ellipse id="svgraph-9-s0-pt-3" cx="63.5717" cy="37.8717" rx="1.6" ry="4" fill="transparent" tabindex="0"><title>158</title></ellipse></g><g class="series-0"><ellipse cx="80.8094" cy="25.0899" rx="0.48" ry="1.2" fill="#10b981"><title>184</title></ellipse><ellipse id="svgraph-9-s0-pt-4" cx="80.8094" cy="25.0899" rx="1.6" ry="4" fill="transparent" tabindex="0"><title>184</title></ellipse></g><g class="series-0"><ellipse cx="98" cy="10.8333" rx="0.48" ry="1.2" fill="#10b981"><title>213</title></ellipse><ellipse id="svgraph-9-s0-pt-5" cx="98" cy="10.8333" rx="1.6" ry="4" fill="transparent" tabindex="0"><title>213</title></ellipse></g></svg><text x="0" y="291.0886" font-family="inherit" font-size="12" fill="#374151" text-anchor="start" dominant-baseline="middle">50</text><text x="0" y="212.4317" font-family="inherit" font-size="12" fill="#374151" text-anchor="start" dominant-baseline="middle">100</text><text x="0" y="133.7747" font-family="inherit" font-size="12" fill="#374151" text-anchor="start" dominant-baseline="middle">150</text><text x="0" y="55.1174" font-family="inherit" font-size="12" fill="#374151" text-anchor="start" dominant-baseline="middle">200</text><text x="0" y="0" font-family="inherit" font-size="12" fill="#374151" text-anchor="start" dominant-baseline="middle">250</text><text x="96" y="320" font-family="inherit" font-size="12" fill="#374151" text-anchor="middle" dominant-baseline="text-after-edge">2021</text><text x="233.5248" y="320" font-family="inherit" font-size="12" fill="#374151" text-anchor="middle" dominant-baseline="text-after-edge">2022</text><text x="371.0496" y="320" font-family="inherit" font-size="12" fill="#374151" text-anchor="middle" dominant-baseline="text-after-edge">2023</text><text x="508.5736" y="320" font-family="inherit" font-size="12" fill="#374151" text-anchor="middle" dominant-baseline="text-after-edge">2024</text><text x="646.4752" y="320" font-family="inherit" font-size="12" fill="#374151" text-anchor="middle" dominant-baseline="text-after-edge">2025</text><text x="784" y="320" font-family="inherit" font-size="12" fill="#374151" text-anchor="middle" dominant-baseline="text-after-edge">2026</text></svg>