<?xml version="1.0" encoding="UTF-8"?>
<svg xmlns="http://www.w3.org/2000/svg" width="800" height="320" viewBox="0 0 800 320"><svg x="0" y="0" width="800" height="320" viewBox="0 0 100 100" preserveAspectRatio="none"><line x1="12" x2="98" y1="81.9558" y2="81.9558" stroke="#e5e7eb" stroke-width="1" vector-effect="non-scaling-stroke"/><line x1="12" x2="98" y1="68.0102" y2="68.0102" stroke="#e5e7eb" stroke-width="1" vector-effect="non-scaling-stroke"/><line x1="12" x2="98" y1="54.0646" y2="54.0646" stroke="#e5e7eb" stroke-width="1" vector-effect="non-scaling-stroke"/><line x1="12" x2="98" y1="40.119" y2="40.119" stroke="#e5e7eb" stroke-width="1" vector-effect="non-scaling-stroke"/><line x1="12" x2="98" y1="26.1735" y2="26.1735" stroke="#e5e7eb" stroke-width="1" vector-effect="non-scaling-stroke"/><line x1="12" x2="98" y1="12.2279" y2="12.2279" stroke="#e5e7eb" stroke-width="1" vector-effect="non-scaling-stroke"/><line x1="12" x2="98" y1="-1.7177" y2="-1.7177" stroke="#e5e7eb" stroke-width="1" vector-effect="non-scaling-stroke"/><line x1="12" x2="12" y1="4" y2="86" stroke="#9ca3af" stroke-width="1" vector-effect="non-scaling-stroke"/><line x1="12" x2="98" y1="86" y2="86" stroke="#9ca3af" stroke-width="1" vector-effect="non-scaling-stroke"/><path class="series-0" d="M12,79.1667 C16.3,71.3571 15.6857,56.8537 24.2857,56.8537 C32.8857,56.8537 27.9714,66.6156 36.5714,66.6156 C45.1714,66.6156 40.2571,55.0408 48.8571,44.3027 C57.4571,33.5646 52.5429,35.9354 61.1429,35.9354 C69.7429,35.9354 64.8286,41.5136 73.4286,41.5136 C82.0286,41.5136 77.1143,31.3333 85.7143,20.5952 C94.3143,9.8571 93.7,14.25 98,10.8333 L98,86 L12,86 Z" fill="#3b82f6" fill-opacity="0.18" stroke="none"/><path class="series-0" d="M12,79.1667 C16.3,71.3571 15.6857,56.8537 24.2857,56.8537 C32.8857,56.8537 27.9714,66.6156 36.5714,66.6156 C45.1714,66.6156 40.2571,55.0408 48.8571,44.3027 C57.4571,33.5646 52.5429,35.9354 61.1429,35.9354 C69.7429,35.9354 64.8286,41.5136 73.4286,41.5136 C82.0286,41.5136 77.1143,31.3333 85.7143,20.5952 C94.3143,9.8571 93.7,14.25 98,10.8333" fill="none" stroke="#3b82f6" stroke-width="2" stroke-linecap="round" stroke-linejoin="round" vector-effect="non-scaling-stroke"/></svg><text x="0" y="262.2586" font-family="inherit" font-size="12" fill="#374151" text-anchor="start" dominant-baseline="middle">20</text><text x="0" y="217.6326" font-family="inherit" font-size="12" fill="#374151" text-anchor="start" dominant-baseline="middle">30</text><text x="0" y="173.0067" font-family="inherit" font-size="12" fill="#374151" text-anchor="start" dominant-baseline="middle">40</text><text x="0" y="128.3808" font-family="inherit" font-size="12" fill="#374151" text-anchor="start" dominant-baseline="middle">50</text><text x="0" y="83.7552" font-family="inherit" font-size="12" fill="#374151" text-anchor="start" dominant-baseline="middle">60</text><text x="0" y="39.1293" font-family="inherit" font-size="12" fill="#374151" text-anchor="start" dominant-baseline="middle">70</text><text x="0" y="0" font-family="inherit" font-size="12" fill="#374151" text-anchor="start" dominant-baseline="middle">80</text><text x="96" y="320" font-family="inherit" font-size="12" fill="#374151" text-anchor="middle" dominant-baseline="text-after-edge">W1</text><text x="194.2856" y="320" font-family="inherit" font-size="12" fill="#374151" text-anchor="middle" dominant-baseline="text-after-edge">W2</text><text x="292.5712" y="320" font-family="inherit" font-size="12" fill="#374151" text-anchor="middle" dominant-baseline="text-after-edge">W3</text><text x="390.8568" y="320" font-family="inherit" font-size="12" fill="#374151" text-anchor="middle" dominant-baseline="text-after-edge">W4</text><text x="489.1432" y="320" font-family="inherit" font-size="12" fill="#374151" text-anchor="middle" dominant-baseline="text-after-edge">W5</text><text x="587.4288" y="320" font-family="inherit" font-size="12" fill="#374151" text-anchor="middle" dominant-baseline="text-after-edge">W6</text><text x="685.7144" y="320" font-family="inherit" font-size="12" fill="#374151" text-anchor="middle" dominant-baseline="text-after-edge">W7</text><text x="784" y="320" font-family="inherit" font-size="12" fill="#374151" text-anchor="middle" dominant-baseline="text-after-edge">W8</text></svg>