<?xml version="1.0" encoding="UTF-8"?>
<svg xmlns="http://www.w3.org/2000/svg" width="800" height="320" viewBox="0 0 800 320"><svg x="0" y="0" width="800" height="320" viewBox="0 0 100 100" preserveAspectRatio="none"><line x1="12" x2="98" y1="90.881" y2="90.881" stroke="#e5e7eb" stroke-width="1" vector-effect="non-scaling-stroke"/><line x1="12" x2="98" y1="71.3571" y2="71.3571" stroke="#e5e7eb" stroke-width="1" vector-effect="non-scaling-stroke"/><line x1="12" x2="98" y1="51.8333" y2="51.8333" stroke="#e5e7eb" stroke-width="1" vector-effect="non-scaling-stroke"/><line x1="12" x2="98" y1="32.3095" y2="32.3095" stroke="#e5e7eb" stroke-width="1" vector-effect="non-scaling-stroke"/><line x1="12" x2="98" y1="12.7857" y2="12.7857" stroke="#e5e7eb" stroke-width="1" vector-effect="non-scaling-stroke"/><line x1="12" x2="12" y1="4" y2="86" stroke="#9ca3af" stroke-width="1" vector-effect="non-scaling-stroke"/><line x1="12" x2="98" y1="86" y2="86" stroke="#9ca3af" stroke-width="1" vector-effect="non-scaling-stroke"/><path class="series-0" d="M12,67.4524 C19.525,57.2024 18.45,38.1667 33.5,38.1667 C48.55,38.1667 39.95,55.7381 55,55.7381 C70.05,55.7381 61.45,42.169 76.5,26.4524 C91.55,10.7357 90.475,16.3 98,10.8333" fill="none" stroke="#3b82f6" stroke-width="2" stroke-linecap="round" stroke-linejoin="round" vector-effect="non-scaling-stroke"/><g class="series-0"><ellipse cx="12" cy="67.4524" rx="0.48" ry="1.2" fill="#3b82f6"><title>Jan: 12</title></ellipse><ellipse id="svgraph-29-s0-pt-0" cx="12" cy="67.4524" rx="1.6" ry="4" fill="transparent" tabindex="0"><title>Jan: 12</title></ellipse></g><g class="series-0"><ellipse cx="33.5" cy="38.1667" rx="0.48" ry="1.2" fill="#3b82f6"><title>Feb: 27</title></ellipse><ellipse id="svgraph-29-s0-pt-1" cx="33.5" cy="38.1667" rx="1.6" ry="4" fill="transparent" tabindex="0"><title>Feb: 27</title></ellipse></g><g class="series-0"><ellipse cx="55" cy="55.7381" rx="0.48" ry="1.2" fill="#3b82f6"><title>Mar: 18</title></ellipse><ellipse id="svgraph-29-s0-pt-2" cx="55" cy="55.7381" rx="1.6" ry="4" fill="transparent" tabindex="0"><title>Mar: 18</title></ellipse></g><g class="series-0"><ellipse cx="76.5" cy="26.4524" rx="0.48" ry="1.2" fill="#3b82f6"><title>Apr: 33</title></ellipse><ellipse id="svgraph-29-s0-pt-3" cx="76.5" cy="26.4524" rx="1.6" ry="4" fill="transparent" tabindex="0"><title>Apr: 33</title></ellipse></g><g class="series-0"><ellipse cx="98" cy="10.8333" rx="0.48" ry="1.2" fill="#3b82f6"><title>May: 41</title></ellipse><ellipse id="svgraph-29-s0-pt-4" cx="98" cy="10.8333" rx="1.6" ry="4" fill="transparent" tabindex="0"><title>May: 41</title></ellipse></g><path class="series-1" d="M12,79.1667 C19.525,73.7 18.45,63.5476 33.5,63.5476 C48.55,63.5476 39.95,73.3095 55,73.3095 C70.05,73.3095 61.45,64.6214 76.5,55.7381 C91.55,46.8548 90.475,50.6619 98,47.9286" fill="none" stroke="#ef4444" stroke-width="2" stroke-linecap="round" stroke-linejoin="round" vector-effect="non-scaling-stroke"/><g class="series-1"><ellipse cx="12" cy="79.1667" rx="0.48" ry="1.2" fill="#ef4444"><title>Costs — Jan: 6</title></ellipse><ellipse id="svgraph-29-s1-pt-0" cx="12" cy="79.1667" rx="1.6" ry="4" fill="transparent" tabindex="0"><title>Costs — Jan: 6</title></ellipse></g><g class="series-1"><ellipse cx="33.5" cy="63.5476" rx="0.48" ry="1.2" fill="#ef4444"><title>Costs — Feb: 14</title></ellipse><ellipse id="svgraph-29-s1-pt-1" cx="33.5" cy="63.5476" rx="1.6" ry="4" fill="transparent" tabindex="0"><title>Costs — Feb: 14</title></ellipse></g><g class="series-1"><ellipse cx="55" cy="73.3095" rx="0.48" ry="1.2" fill="#ef4444"><title>Costs — Mar: 9</title></ellipse><ellipse id="svgraph-29-s1-pt-2" cx="55" cy="73.3095" rx="1.6" ry="4" fill="transparent" tabindex="0"><title>Costs — Mar: 9</title></ellipse></g><g class="series-1"><ellipse cx="76.5" cy="55.7381" rx="0.48" ry="1.2" fill="#ef4444"><title>Costs — Apr: 18</title></ellipse><ellipse id="svgraph-29-s1-pt-3" cx="76.5" cy="55.7381" rx="1.6" ry="4" fill="transparent" tabindex="0"><title>Costs — Apr: 18</title></ellipse></g><g class="series-1"><ellipse cx="98" cy="47.9286" rx="0.48" ry="1.2" fill="#ef4444"><title>Costs — May: 22</title></ellipse><ellipse id="svgraph-29-s1-pt-4" cx="98" cy="47.9286" rx="1.6" ry="4" fill="transparent" tabindex="0"><title>Costs — May: 22</title></ellipse></g></svg><text x="0" y="290.8192" font-family="inherit" font-size="12" fill="#374151" text-anchor="start" dominant-baseline="middle">0</text><text x="0" y="228.3427" font-family="inherit" font-size="12" fill="#374151" text-anchor="start" dominant-baseline="middle">10</text><text x="0" y="165.8666" font-family="inherit" font-size="12" fill="#374151" text-anchor="start" dominant-baseline="middle">20</text><text x="0" y="103.3904" font-family="inherit" font-size="12" fill="#374151" text-anchor="start" dominant-baseline="middle">30</text><text x="0" y="40.9142" font-family="inherit" font-size="12" fill="#374151" text-anchor="start" dominant-baseline="middle">40</text><text x="96" y="320" font-family="inherit" font-size="12" fill="#374151" text-anchor="middle" dominant-baseline="text-after-edge">Jan</text><text x="268" y="320" font-family="inherit" font-size="12" fill="#374151" text-anchor="middle" dominant-baseline="text-after-edge">Feb</text><text x="440" y="320" font-family="inherit" font-size="12" fill="#374151" text-anchor="middle" dominant-baseline="text-after-edge">Mar</text><text x="612" y="320" font-family="inherit" font-size="12" fill="#374151" text-anchor="middle" dominant-baseline="text-after-edge">Apr</text><text x="784" y="320" font-family="inherit" font-size="12" fill="#374151" text-anchor="middle" dominant-baseline="text-after-edge">May</text></svg>