<?xml version="1.0" encoding="UTF-8"?>
<svg xmlns="http://www.w3.org/2000/svg" width="800" height="320" viewBox="0 0 800 320"><svg x="0" y="0" width="800" height="320" viewBox="0 0 100 100" preserveAspectRatio="none"><title id="svgraph-46-title">Line chart</title><desc id="svgraph-46-desc">Line chart with 1 series of 9 points. Range: 12 to 45. Revenue trend: slope 3.88, R² 0.93.</desc><line x1="12" x2="98" y1="83.3081" y2="83.3081" stroke="#e5e7eb" stroke-width="1" vector-effect="non-scaling-stroke"/><line x1="12" x2="98" y1="62.601" y2="62.601" stroke="#e5e7eb" stroke-width="1" vector-effect="non-scaling-stroke"/><line x1="12" x2="98" y1="41.8939" y2="41.8939" stroke="#e5e7eb" stroke-width="1" vector-effect="non-scaling-stroke"/><line x1="12" x2="98" y1="21.1869" y2="21.1869" stroke="#e5e7eb" stroke-width="1" vector-effect="non-scaling-stroke"/><line x1="12" x2="98" y1="0.4798" y2="0.4798" stroke="#e5e7eb" stroke-width="1" vector-effect="non-scaling-stroke"/><line x1="12" x2="12" y1="4" y2="86" stroke="#9ca3af" stroke-width="1" vector-effect="non-scaling-stroke"/><line x1="12" x2="98" y1="86" y2="86" stroke="#9ca3af" stroke-width="1" vector-effect="non-scaling-stroke"/><path class="series-0" d="M12,79.1667 L22.75,64.6717 L33.5,66.7424 L44.25,48.1061 L55,54.3182 L65.75,35.6818 L76.5,39.8232 L87.25,17.0455 L98,10.8333" fill="none" stroke="#3b82f6" stroke-width="2" stroke-linecap="round" stroke-linejoin="round" vector-effect="non-scaling-stroke"/><g class="series-0"><ellipse cx="12" cy="79.1667" rx="0.48" ry="1.2" fill="#3b82f6"><title>Revenue — Jan: 12</title></ellipse><ellipse id="svgraph-46-s0-pt-0" cx="12" cy="79.1667" rx="1.6" ry="4" fill="transparent" tabindex="0"><title>Revenue — Jan: 12</title></ellipse></g><g class="series-0"><ellipse cx="22.75" cy="64.6717" rx="0.48" ry="1.2" fill="#3b82f6"><title>Revenue — Feb: 19</title></ellipse><ellipse id="svgraph-46-s0-pt-1" cx="22.75" cy="64.6717" rx="1.6" ry="4" fill="transparent" tabindex="0"><title>Revenue — Feb: 19</title></ellipse></g><g class="series-0"><ellipse cx="33.5" cy="66.7424" rx="0.48" ry="1.2" fill="#3b82f6"><title>Revenue — Mar: 18</title></ellipse><ellipse id="svgraph-46-s0-pt-2" cx="33.5" cy="66.7424" rx="1.6" ry="4" fill="transparent" tabindex="0"><title>Revenue — Mar: 18</title></ellipse></g><g class="series-0"><ellipse cx="44.25" cy="48.1061" rx="0.48" ry="1.2" fill="#3b82f6"><title>Revenue — Apr: 27</title></ellipse><ellipse id="svgraph-46-s0-pt-3" cx="44.25" cy="48.1061" rx="1.6" ry="4" fill="transparent" tabindex="0"><title>Revenue — Apr: 27</title></ellipse></g><g class="series-0"><ellipse cx="55" cy="54.3182" rx="0.48" ry="1.2" fill="#3b82f6"><title>Revenue — May: 24</title></ellipse><ellipse id="svgraph-46-s0-pt-4" cx="55" cy="54.3182" rx="1.6" ry="4" fill="transparent" tabindex="0"><title>Revenue — May: 24</title></ellipse></g><g class="series-0"><ellipse cx="65.75" cy="35.6818" rx="0.48" ry="1.2" fill="#3b82f6"><title>Revenue — Jun: 33</title></ellipse><ellipse id="svgraph-46-s0-pt-5" cx="65.75" cy="35.6818" rx="1.6" ry="4" fill="transparent" tabindex="0"><title>Revenue — Jun: 33</title></ellipse></g><g class="series-0"><ellipse cx="76.5" cy="39.8232" rx="0.48" ry="1.2" fill="#3b82f6"><title>Revenue — Jul: 31</title></ellipse><ellipse id="svgraph-46-s0-pt-6" cx="76.5" cy="39.8232" rx="1.6" ry="4" fill="transparent" tabindex="0"><title>Revenue — Jul: 31</title></ellipse></g><g class="series-0"><ellipse cx="87.25" cy="17.0455" rx="0.48" ry="1.2" fill="#3b82f6"><title>Revenue — Aug: 42</title></ellipse><ellipse id="svgraph-46-s0-pt-7" cx="87.25" cy="17.0455" rx="1.6" ry="4" fill="transparent" tabindex="0"><title>Revenue — Aug: 42</title></ellipse></g><g class="series-0"><ellipse cx="98" cy="10.8333" rx="0.48" ry="1.2" fill="#3b82f6"><title>Revenue — Sep: 45</title></ellipse><ellipse id="svgraph-46-s0-pt-8" cx="98" cy="10.8333" rx="1.6" ry="4" fill="transparent" tabindex="0"><title>Revenue — Sep: 45</title></ellipse></g><path class="svgraph-trend series-0" d="M12,78.4304 L98,14.1004" fill="none" stroke="#3b82f6" stroke-width="2" stroke-dasharray="4,3" stroke-linecap="round" opacity="0.5" vector-effect="non-scaling-stroke"><title>Revenue — Trend: slope 3.88, R² 0.93</title></path></svg><text x="0" y="266.5859" font-family="inherit" font-size="12" fill="#374151" text-anchor="start" dominant-baseline="middle">10</text><text x="0" y="200.3232" font-family="inherit" font-size="12" fill="#374151" text-anchor="start" dominant-baseline="middle">20</text><text x="0" y="134.0605" font-family="inherit" font-size="12" fill="#374151" text-anchor="start" dominant-baseline="middle">30</text><text x="0" y="67.7981" font-family="inherit" font-size="12" fill="#374151" text-anchor="start" dominant-baseline="middle">40</text><text x="0" y="1.5354" font-family="inherit" font-size="12" fill="#374151" text-anchor="start" dominant-baseline="middle">50</text><text x="96" y="320" font-family="inherit" font-size="12" fill="#374151" text-anchor="middle" dominant-baseline="text-after-edge">Jan</text><text x="182" y="320" font-family="inherit" font-size="12" fill="#374151" text-anchor="middle" dominant-baseline="text-after-edge">Feb</text><text x="268" y="320" font-family="inherit" font-size="12" fill="#374151" text-anchor="middle" dominant-baseline="text-after-edge">Mar</text><text x="354" y="320" font-family="inherit" font-size="12" fill="#374151" text-anchor="middle" dominant-baseline="text-after-edge">Apr</text><text x="440" y="320" font-family="inherit" font-size="12" fill="#374151" text-anchor="middle" dominant-baseline="text-after-edge">May</text><text x="526" y="320" font-family="inherit" font-size="12" fill="#374151" text-anchor="middle" dominant-baseline="text-after-edge">Jun</text><text x="612" y="320" font-family="inherit" font-size="12" fill="#374151" text-anchor="middle" dominant-baseline="text-after-edge">Jul</text><text x="698" y="320" font-family="inherit" font-size="12" fill="#374151" text-anchor="middle" dominant-baseline="text-after-edge">Aug</text><text x="784" y="320" font-family="inherit" font-size="12" fill="#374151" text-anchor="middle" dominant-baseline="text-after-edge">Sep</text></svg>