<?xml version="1.0" encoding="UTF-8"?>
<svg xmlns="http://www.w3.org/2000/svg" width="800" height="320" viewBox="0 0 800 320"><svg x="0" y="0" width="800" height="320" viewBox="0 0 100 100" preserveAspectRatio="none"><title id="svgraph-40-title">Line chart</title><desc id="svgraph-40-desc">Line chart with 1 series of 30 points. Range: 100.2 to 138.8.</desc><line x1="12" x2="98" y1="79.5207" y2="79.5207" stroke="#e5e7eb" stroke-width="1" vector-effect="non-scaling-stroke"/><line x1="12" x2="98" y1="61.8178" y2="61.8178" stroke="#e5e7eb" stroke-width="1" vector-effect="non-scaling-stroke"/><line x1="12" x2="98" y1="44.1149" y2="44.1149" stroke="#e5e7eb" stroke-width="1" vector-effect="non-scaling-stroke"/><line x1="12" x2="98" y1="26.4119" y2="26.4119" stroke="#e5e7eb" stroke-width="1" vector-effect="non-scaling-stroke"/><line x1="12" x2="98" y1="8.709" y2="8.709" stroke="#e5e7eb" stroke-width="1" vector-effect="non-scaling-stroke"/><line x1="12" x2="12" y1="4" y2="86" stroke="#9ca3af" stroke-width="1" vector-effect="non-scaling-stroke"/><line x1="12" x2="98" y1="86" y2="86" stroke="#9ca3af" stroke-width="1" vector-effect="non-scaling-stroke"/><path class="series-0" d="M12,72.4396 L14.9655,70.6693 L17.931,65.8895 L20.8966,58.8083 L23.8621,50.1339 L26.8276,32.6079 L29.7931,24.6416 L32.7586,18.7997 L35.7241,15.6131 L38.6897,15.9672 L41.6552,10.8333 L44.6207,17.9145 L47.5862,27.8282 L50.5517,39.5121 L53.5172,51.7271 L56.4828,54.9136 L59.4483,65.3584 L62.4138,73.3247 L65.3793,77.9275 L68.3448,79.1667 L71.3103,68.1908 L74.2759,62.88 L77.2414,55.4447 L80.2069,46.7703 L83.1724,38.0959 L86.1379,21.6321 L89.1034,16.1442 L92.069,13.4888 L95.0345,14.1969 L98,18.6226" fill="none" stroke="#3b82f6" stroke-width="2" stroke-linecap="round" stroke-linejoin="round" vector-effect="non-scaling-stroke"/></svg></svg>