<?xml version="1.0" encoding="UTF-8"?>
<svg xmlns="http://www.w3.org/2000/svg" width="800" height="320" viewBox="0 0 800 320"><svg x="0" y="0" width="800" height="320" viewBox="0 0 100 100" preserveAspectRatio="none"><line x1="12" x2="98" y1="82.5833" y2="82.5833" stroke="#e5e7eb" stroke-width="1" vector-effect="non-scaling-stroke"/><line x1="12" x2="98" y1="65.5" y2="65.5" stroke="#e5e7eb" stroke-width="1" vector-effect="non-scaling-stroke"/><line x1="12" x2="98" y1="48.4167" y2="48.4167" stroke="#e5e7eb" stroke-width="1" vector-effect="non-scaling-stroke"/><line x1="12" x2="98" y1="31.3333" y2="31.3333" stroke="#e5e7eb" stroke-width="1" vector-effect="non-scaling-stroke"/><line x1="12" x2="98" y1="14.25" y2="14.25" stroke="#e5e7eb" stroke-width="1" vector-effect="non-scaling-stroke"/><line x1="12" x2="98" y1="-2.8333" y2="-2.8333" stroke="#e5e7eb" stroke-width="1" vector-effect="non-scaling-stroke"/><line x1="12" x2="12" y1="4" y2="86" stroke="#9ca3af" stroke-width="1" vector-effect="non-scaling-stroke"/><line x1="12" x2="98" y1="86" y2="86" stroke="#9ca3af" stroke-width="1" vector-effect="non-scaling-stroke"/><path class="series-0" d="M12,79.1667 C18.02,70.1979 17.16,53.5417 29.2,53.5417 C41.24,53.5417 34.36,68.9167 46.4,68.9167 C58.44,68.9167 51.56,29.625 63.6,29.625 C75.64,29.625 68.76,43.2917 80.8,43.2917 C92.84,43.2917 91.98,22.1938 98,10.8333" fill="none" stroke="#3b82f6" stroke-width="2" stroke-linecap="round" stroke-linejoin="round" vector-effect="non-scaling-stroke"/><g class="series-0"><ellipse cx="12" cy="79.1667" rx="0.48" ry="1.2" fill="#3b82f6"><title>Mon: 12</title></ellipse><ellipse id="svgraph-38-s0-pt-0" cx="12" cy="79.1667" rx="1.6" ry="4" fill="transparent" tabindex="0"><title>Mon: 12</title></ellipse></g><g class="series-0"><ellipse cx="29.2" cy="53.5417" rx="0.48" ry="1.2" fill="#3b82f6"><title>Tue: 27</title></ellipse><ellipse id="svgraph-38-s0-pt-1" cx="29.2" cy="53.5417" rx="1.6" ry="4" fill="transparent" tabindex="0"><title>Tue: 27</title></ellipse></g><g class="series-0"><ellipse cx="46.4" cy="68.9167" rx="0.48" ry="1.2" fill="#3b82f6"><title>Wed: 18</title></ellipse><ellipse id="svgraph-38-s0-pt-2" cx="46.4" cy="68.9167" rx="1.6" ry="4" fill="transparent" tabindex="0"><title>Wed: 18</title></ellipse></g><g class="series-0"><ellipse cx="63.6" cy="29.625" rx="0.48" ry="1.2" fill="#3b82f6"><title>Thu: 41</title></ellipse><ellipse id="svgraph-38-s0-pt-3" cx="63.6" cy="29.625" rx="1.6" ry="4" fill="transparent" tabindex="0"><title>Thu: 41</title></ellipse></g><g class="series-0"><ellipse cx="80.8" cy="43.2917" rx="0.48" ry="1.2" fill="#3b82f6"><title>Fri: 33</title></ellipse><ellipse id="svgraph-38-s0-pt-4" cx="80.8" cy="43.2917" rx="1.6" ry="4" fill="transparent" tabindex="0"><title>Fri: 33</title></ellipse></g><g class="series-0"><ellipse cx="98" cy="10.8333" rx="0.48" ry="1.2" fill="#3b82f6"><title>Sat: 52</title></ellipse><ellipse id="svgraph-38-s0-pt-5" cx="98" cy="10.8333" rx="1.6" ry="4" fill="transparent" tabindex="0"><title>Sat: 52</title></ellipse></g></svg><text x="0" y="264.2666" font-family="inherit" font-size="12" fill="#374151" text-anchor="start" dominant-baseline="middle">10</text><text x="0" y="209.6" font-family="inherit" font-size="12" fill="#374151" text-anchor="start" dominant-baseline="middle">20</text><text x="0" y="154.9334" font-family="inherit" font-size="12" fill="#374151" text-anchor="start" dominant-baseline="middle">30</text><text x="0" y="100.2666" font-family="inherit" font-size="12" fill="#374151" text-anchor="start" dominant-baseline="middle">40</text><text x="0" y="45.6" font-family="inherit" font-size="12" fill="#374151" text-anchor="start" dominant-baseline="middle">50</text><text x="0" y="0" font-family="inherit" font-size="12" fill="#374151" text-anchor="start" dominant-baseline="middle">60</text><text x="96" y="320" font-family="inherit" font-size="12" fill="#374151" text-anchor="middle" dominant-baseline="text-after-edge">Mon</text><text x="233.6" y="320" font-family="inherit" font-size="12" fill="#374151" text-anchor="middle" dominant-baseline="text-after-edge">Tue</text><text x="371.2" y="320" font-family="inherit" font-size="12" fill="#374151" text-anchor="middle" dominant-baseline="text-after-edge">Wed</text><text x="508.8" y="320" font-family="inherit" font-size="12" fill="#374151" text-anchor="middle" dominant-baseline="text-after-edge">Thu</text><text x="646.4" y="320" font-family="inherit" font-size="12" fill="#374151" text-anchor="middle" dominant-baseline="text-after-edge">Fri</text><text x="784" y="320" font-family="inherit" font-size="12" fill="#374151" text-anchor="middle" dominant-baseline="text-after-edge">Sat</text></svg>