<?xml version="1.0" encoding="UTF-8"?>
<svg xmlns="http://www.w3.org/2000/svg" width="800" height="800" viewBox="0 0 800 800"><svg x="0" y="0" width="800" height="800" viewBox="0 0 100 100" preserveAspectRatio="none"><path class="series-0" style="--pop-x:-0.1564;--pop-y:-0.9877;" d="M50,42 L12,42 A38,38 0 0 1 86.1401,30.2574 Z" fill="#3b82f6" id="svgraph-13-pt-0" tabindex="0"><title>Direct: 540</title></path><path class="series-1" style="--pop-x:0.866;--pop-y:0.5;" d="M50,42 L86.1401,30.2574 A38,38 0 0 1 57.9006,79.1696 Z" fill="#10b981" id="svgraph-13-pt-1" tabindex="0"><title>Search: 320</title></path><path class="series-2" style="--pop-x:-0.3338;--pop-y:0.9426;" d="M50,42 L57.9006,79.1696 A38,38 0 0 1 20.4685,65.9142 Z" fill="#f59e0b" id="svgraph-13-pt-2" tabindex="0"><title>Social: 210</title></path><path class="series-3" style="--pop-x:-0.9426;--pop-y:0.3338;" d="M50,42 L20.4685,65.9142 A38,38 0 0 1 12,42 Z" fill="#ef4444" id="svgraph-13-pt-3" tabindex="0"><title>Email: 130</title></path></svg><rect x="8" y="690.4" width="7.2" height="7.2" rx="1.8" fill="#3b82f6"/><text x="20" y="694" font-family="inherit" font-size="12" fill="#374151" text-anchor="start" dominant-baseline="middle">Direct</text><rect x="208" y="690.4" width="7.2" height="7.2" rx="1.8" fill="#10b981"/><text x="220" y="694" font-family="inherit" font-size="12" fill="#374151" text-anchor="start" dominant-baseline="middle">Search</text><rect x="408" y="690.4" width="7.2" height="7.2" rx="1.8" fill="#f59e0b"/><text x="420" y="694" font-family="inherit" font-size="12" fill="#374151" text-anchor="start" dominant-baseline="middle">Social</text><rect x="608" y="690.4" width="7.2" height="7.2" rx="1.8" fill="#ef4444"/><text x="620" y="694" font-family="inherit" font-size="12" fill="#374151" text-anchor="start" dominant-baseline="middle">Email</text></svg>