<?xml version="1.0" encoding="UTF-8"?>
<svg xmlns="http://www.w3.org/2000/svg" width="800" height="800" viewBox="0 0 800 800"><svg x="0" y="0" width="800" height="800" viewBox="0 0 100 100" preserveAspectRatio="none"><path class="series-0" style="--pop-x:0.9888;--pop-y:0.1493;" d="M50,42 L50,4 A38,38 0 1 1 38.7801,78.3058 Z" fill="#3b82f6" id="svgraph-12-pt-0" tabindex="0"><title>Stripe: 1,240</title></path><path class="series-1" style="--pop-x:-0.7828;--pop-y:0.6222;" d="M50,42 L38.7801,78.3058 A38,38 0 0 1 12.0989,44.7396 Z" fill="#10b981" id="svgraph-12-pt-1" tabindex="0"><title>PayPal: 432</title></path><path class="series-2" style="--pop-x:-0.9356;--pop-y:-0.353;" d="M50,42 L12.0989,44.7396 A38,38 0 0 1 23.3546,14.9072 Z" fill="#f59e0b" id="svgraph-12-pt-2" tabindex="0"><title>Bank: 312</title></path><path class="series-3" style="--pop-x:-0.4984;--pop-y:-0.8669;" d="M50,42 L23.3546,14.9072 A38,38 0 0 1 39.9952,5.3407 Z" fill="#ef4444" id="svgraph-12-pt-3" tabindex="0"><title>Crypto: 184</title></path><path class="series-4" style="--pop-x:-0.1328;--pop-y:-0.9911;" d="M50,42 L39.9952,5.3407 A38,38 0 0 1 50,4 Z" fill="#8b5cf6" id="svgraph-12-pt-4" tabindex="0"><title>Other: 96</title></path></svg><rect x="8" y="690.4" width="7.2" height="7.2" rx="1.8" fill="#3b82f6"/><text x="20" y="694" font-family="inherit" font-size="12" fill="#374151" text-anchor="start" dominant-baseline="middle">Stripe</text><rect x="208" y="690.4" width="7.2" height="7.2" rx="1.8" fill="#10b981"/><text x="220" y="694" font-family="inherit" font-size="12" fill="#374151" text-anchor="start" dominant-baseline="middle">PayPal</text><rect x="408" y="690.4" width="7.2" height="7.2" rx="1.8" fill="#f59e0b"/><text x="420" y="694" font-family="inherit" font-size="12" fill="#374151" text-anchor="start" dominant-baseline="middle">Bank</text><rect x="608" y="690.4" width="7.2" height="7.2" rx="1.8" fill="#ef4444"/><text x="620" y="694" font-family="inherit" font-size="12" fill="#374151" text-anchor="start" dominant-baseline="middle">Crypto</text><rect x="8" y="738.4" width="7.2" height="7.2" rx="1.8" fill="#8b5cf6"/><text x="20" y="742" font-family="inherit" font-size="12" fill="#374151" text-anchor="start" dominant-baseline="middle">Other</text></svg>