<?xml version="1.0" encoding="UTF-8"?>
<svg xmlns="http://www.w3.org/2000/svg" width="800" height="200" viewBox="0 0 800 200"><svg x="0" y="0" width="800" height="200" viewBox="0 0 100 100" preserveAspectRatio="none"><title id="svgraph-24-title">Sparkline</title><desc id="svgraph-24-desc">Sparkline with 1 series of 10 points. Range: 14 to 48.</desc><path class="series-0" d="M0,91.6667 C3.7037,85.1307 7.4074,72.0588 11.1111,72.0588 C14.8148,72.0588 18.5185,81.8627 22.2222,81.8627 C25.9259,81.8627 29.6296,65.1144 33.3333,59.8039 C37.037,54.4935 40.7407,50 44.4444,50 C48.1481,50 51.8519,67.1569 55.5556,67.1569 C59.2593,67.1569 62.963,52.0425 66.6667,45.098 C70.3704,38.1536 74.0741,25.4902 77.7778,25.4902 C81.4815,25.4902 85.1852,37.7451 88.8889,37.7451 C92.5926,37.7451 96.2963,18.1373 100,8.3333 L100,100 L0,100 Z" fill="#10b981" fill-opacity="0.25" stroke="none"/><path class="series-0" d="M0,91.6667 C3.7037,85.1307 7.4074,72.0588 11.1111,72.0588 C14.8148,72.0588 18.5185,81.8627 22.2222,81.8627 C25.9259,81.8627 29.6296,65.1144 33.3333,59.8039 C37.037,54.4935 40.7407,50 44.4444,50 C48.1481,50 51.8519,67.1569 55.5556,67.1569 C59.2593,67.1569 62.963,52.0425 66.6667,45.098 C70.3704,38.1536 74.0741,25.4902 77.7778,25.4902 C81.4815,25.4902 85.1852,37.7451 88.8889,37.7451 C92.5926,37.7451 96.2963,18.1373 100,8.3333" fill="none" stroke="#10b981" stroke-width="2" stroke-linecap="round" stroke-linejoin="round" vector-effect="non-scaling-stroke"/></svg></svg>