<?xml version="1.0" encoding="UTF-8"?>
<svg xmlns="http://www.w3.org/2000/svg" width="800" height="200" viewBox="0 0 800 200"><svg x="0" y="0" width="800" height="200" viewBox="0 0 100 100" preserveAspectRatio="none"><title id="svgraph-1-title">Sparkline</title><desc id="svgraph-1-desc">Sparkline with 1 series of 10 points. Range: 14 to 48.</desc><path class="series-0" d="M0,91.6667 C3.8889,84.8039 3.3333,72.0588 11.1111,72.0588 C18.8889,72.0588 14.4444,81.8627 22.2222,81.8627 C30,81.8627 25.5556,70.9559 33.3333,59.8039 C41.1111,48.652 36.6667,50 44.4444,50 C52.2222,50 47.7778,67.1569 55.5556,67.1569 C63.3333,67.1569 58.8889,59.6814 66.6667,45.098 C74.4444,30.5147 70,25.4902 77.7778,25.4902 C85.5556,25.4902 81.1111,37.7451 88.8889,37.7451 C96.6667,37.7451 96.1111,18.6275 100,8.3333 L100,100 L0,100 Z" fill="#10b981" fill-opacity="0.25" stroke="none"/><path class="series-0" d="M0,91.6667 C3.8889,84.8039 3.3333,72.0588 11.1111,72.0588 C18.8889,72.0588 14.4444,81.8627 22.2222,81.8627 C30,81.8627 25.5556,70.9559 33.3333,59.8039 C41.1111,48.652 36.6667,50 44.4444,50 C52.2222,50 47.7778,67.1569 55.5556,67.1569 C63.3333,67.1569 58.8889,59.6814 66.6667,45.098 C74.4444,30.5147 70,25.4902 77.7778,25.4902 C85.5556,25.4902 81.1111,37.7451 88.8889,37.7451 C96.6667,37.7451 96.1111,18.6275 100,8.3333" fill="none" stroke="#10b981" stroke-width="2" stroke-linecap="round" stroke-linejoin="round" vector-effect="non-scaling-stroke"/></svg></svg>