<?xml version="1.0" encoding="UTF-8"?>
<svg xmlns="http://www.w3.org/2000/svg" width="800" height="320" viewBox="0 0 800 320"><svg x="0" y="0" width="800" height="320" viewBox="0 0 100 100" preserveAspectRatio="none"><title id="svgraph-35-title">Line chart</title><desc id="svgraph-35-desc">Line chart with 1 series of 6 points. Range: 12 to 52.</desc><line x1="12" x2="98" y1="82.5833" y2="82.5833" stroke="#e5e7eb" stroke-width="1" vector-effect="non-scaling-stroke"/><line x1="12" x2="98" y1="65.5" y2="65.5" stroke="#e5e7eb" stroke-width="1" vector-effect="non-scaling-stroke"/><line x1="12" x2="98" y1="48.4167" y2="48.4167" stroke="#e5e7eb" stroke-width="1" vector-effect="non-scaling-stroke"/><line x1="12" x2="98" y1="31.3333" y2="31.3333" stroke="#e5e7eb" stroke-width="1" vector-effect="non-scaling-stroke"/><line x1="12" x2="98" y1="14.25" y2="14.25" stroke="#e5e7eb" stroke-width="1" vector-effect="non-scaling-stroke"/><line x1="12" x2="98" y1="-2.8333" y2="-2.8333" stroke="#e5e7eb" stroke-width="1" vector-effect="non-scaling-stroke"/><line x1="12" x2="12" y1="4" y2="86" stroke="#9ca3af" stroke-width="1" vector-effect="non-scaling-stroke"/><line x1="12" x2="98" y1="86" y2="86" stroke="#9ca3af" stroke-width="1" vector-effect="non-scaling-stroke"/><path class="series-0" d="M12,79.1667 C17.7333,70.625 23.4667,53.5417 29.2,53.5417 C34.9333,53.5417 40.6667,68.9167 46.4,68.9167 C52.1333,68.9167 57.8667,29.625 63.6,29.625 C69.3333,29.625 75.0667,43.2917 80.8,43.2917 C86.5333,43.2917 92.2667,21.6528 98,10.8333 L98,86 L12,86 Z" fill="#3b82f6" fill-opacity="0.18" stroke="none"/><path class="series-0" d="M12,79.1667 C17.7333,70.625 23.4667,53.5417 29.2,53.5417 C34.9333,53.5417 40.6667,68.9167 46.4,68.9167 C52.1333,68.9167 57.8667,29.625 63.6,29.625 C69.3333,29.625 75.0667,43.2917 80.8,43.2917 C86.5333,43.2917 92.2667,21.6528 98,10.8333" fill="none" stroke="#3b82f6" stroke-width="2" stroke-linecap="round" stroke-linejoin="round" vector-effect="non-scaling-stroke"/></svg></svg>