<?xml version="1.0" encoding="UTF-8"?>
<svg xmlns="http://www.w3.org/2000/svg" width="800" height="800" viewBox="0 0 800 800"><svg x="0" y="0" width="800" height="800" viewBox="0 0 100 100" preserveAspectRatio="none"><path class="series-0" style="--pop-x:0.9877;--pop-y:-0.1564;" d="M50,42 L50,4 A38,38 0 0 1 61.7426,78.1401 Z" fill="#6366f1" id="svgraph-25-pt-0" tabindex="0"><title>Direct: 540</title></path><path class="series-1" style="--pop-x:-0.5;--pop-y:0.866;" d="M50,42 L61.7426,78.1401 A38,38 0 0 1 12.8304,49.9006 Z" fill="#f43f5e" id="svgraph-25-pt-1" tabindex="0"><title>Search: 320</title></path><path class="series-2" style="--pop-x:-0.9426;--pop-y:-0.3338;" d="M50,42 L12.8304,49.9006 A38,38 0 0 1 26.0858,12.4685 Z" fill="#0ea5e9" id="svgraph-25-pt-2" tabindex="0"><title>Social: 210</title></path><path class="series-3" style="--pop-x:-0.3338;--pop-y:-0.9426;" d="M50,42 L26.0858,12.4685 A38,38 0 0 1 50,4 Z" fill="#84cc16" id="svgraph-25-pt-3" tabindex="0"><title>Email: 130</title></path></svg><rect x="8" y="690.4" width="7.2" height="7.2" rx="1.8" fill="#6366f1"/><text x="20" y="694" font-family="inherit" font-size="12" fill="#374151" text-anchor="start" dominant-baseline="middle">Direct</text><rect x="208" y="690.4" width="7.2" height="7.2" rx="1.8" fill="#f43f5e"/><text x="220" y="694" font-family="inherit" font-size="12" fill="#374151" text-anchor="start" dominant-baseline="middle">Search</text><rect x="408" y="690.4" width="7.2" height="7.2" rx="1.8" fill="#0ea5e9"/><text x="420" y="694" font-family="inherit" font-size="12" fill="#374151" text-anchor="start" dominant-baseline="middle">Social</text><rect x="608" y="690.4" width="7.2" height="7.2" rx="1.8" fill="#84cc16"/><text x="620" y="694" font-family="inherit" font-size="12" fill="#374151" text-anchor="start" dominant-baseline="middle">Email</text></svg>